<svg width="125" height="100" viewBox="0 0 125 100" fill="none" xmlns="http://www.w3.org/2000/svg">
<path d="M2.56 0C2.10667 0 1.69333 -0.106667 1.32 -0.32C0.96 -0.546667 0.673333 -0.84 0.46 -1.2C0.246667 -1.57333 0.14 -1.98 0.14 -2.42V-11.96C0.14 -12.4133 0.246667 -12.82 0.46 -13.18C0.673333 -13.5533 0.96 -13.8467 1.32 -14.06C1.69333 -14.2867 2.10667 -14.4 2.56 -14.4H12.26C12.7 -14.4 13.1 -14.2867 13.46 -14.06C13.8333 -13.8467 14.1267 -13.5533 14.34 -13.18C14.5667 -12.82 14.68 -12.4133 14.68 -11.96V-2.42C14.68 -1.98 14.5667 -1.57333 14.34 -1.2C14.1267 -0.84 13.8333 -0.546667 13.46 -0.32C13.1 -0.106667 12.7 0 12.26 0H2.56ZM1.98 -1.64H12.26C12.4733 -1.64 12.6533 -1.71333 12.8 -1.86C12.96 -2.02 13.04 -2.20667 13.04 -2.42V-10.76L1.98 -1.64ZM1.78 -3.62L12.82 -12.74H2.56C2.34667 -12.74 2.16 -12.66 2 -12.5C1.85333 -12.3533 1.78 -12.1733 1.78 -11.96V-3.62ZM16.7597 0V-1.64H18.3997V0H16.7597ZM30.117 0V-3.72H20.077V-5.56L29.917 -14.42H31.757V-5.36H33.997V-3.72H31.757V0H30.117ZM22.177 -5.36H30.117V-12.2L22.177 -5.36ZM35.7064 0V-5.4C35.7064 -5.85333 35.8131 -6.26 36.0264 -6.62C36.2397 -6.99333 36.5264 -7.28667 36.8864 -7.5C37.2597 -7.71333 37.6731 -7.82 38.1264 -7.82H47.8264C48.0397 -7.82 48.2197 -7.89333 48.3664 -8.04C48.5264 -8.2 48.6064 -8.38667 48.6064 -8.6V-11.98C48.6064 -12.1933 48.5264 -12.3733 48.3664 -12.52C48.2197 -12.68 48.0397 -12.76 47.8264 -12.76H38.1264C37.9131 -12.76 37.7264 -12.68 37.5664 -12.52C37.4197 -12.3733 37.3464 -12.1933 37.3464 -11.98V-11.42H35.7064V-11.98C35.7064 -12.4333 35.8131 -12.84 36.0264 -13.2C36.2397 -13.5733 36.5264 -13.8667 36.8864 -14.08C37.2597 -14.3067 37.6731 -14.42 38.1264 -14.42H47.8264C48.2664 -14.42 48.6664 -14.3067 49.0264 -14.08C49.3997 -13.8667 49.6931 -13.5733 49.9064 -13.2C50.1331 -12.84 50.2464 -12.4333 50.2464 -11.98V-8.6C50.2464 -8.16 50.1331 -7.75333 49.9064 -7.38C49.6931 -7.02 49.3997 -6.72667 49.0264 -6.5C48.6664 -6.28667 48.2664 -6.18 47.8264 -6.18H38.1264C37.9131 -6.18 37.7264 -6.1 37.5664 -5.94C37.4197 -5.79333 37.3464 -5.61333 37.3464 -5.4V-2.42C37.3464 -2.20667 37.4197 -2.02 37.5664 -1.86C37.7264 -1.71333 37.9131 -1.64 38.1264 -1.64H50.2464V0H35.7064ZM54.668 0C54.2146 0 53.8013 -0.106667 53.428 -0.32C53.068 -0.546667 52.7746 -0.84 52.548 -1.2C52.3346 -1.57333 52.228 -1.98 52.228 -2.42V-2.74H53.888V-2.42C53.888 -2.20667 53.9613 -2.02 54.108 -1.86C54.268 -1.71333 54.4546 -1.64 54.668 -1.64H64.368C64.5813 -1.64 64.7613 -1.71333 64.908 -1.86C65.068 -2.02 65.148 -2.20667 65.148 -2.42V-5.76C65.148 -5.97333 65.068 -6.15333 64.908 -6.3C64.7613 -6.46 64.5813 -6.54 64.368 -6.54H54.988V-8.18H63.728C63.9413 -8.18 64.1213 -8.25333 64.268 -8.4C64.428 -8.56 64.508 -8.74667 64.508 -8.96V-11.98C64.508 -12.1933 64.428 -12.3733 64.268 -12.52C64.1213 -12.68 63.9413 -12.76 63.728 -12.76H54.668C54.4546 -12.76 54.268 -12.68 54.108 -12.52C53.9613 -12.3733 53.888 -12.1933 53.888 -11.98V-11.46H52.228V-11.98C52.228 -12.4333 52.3346 -12.84 52.548 -13.2C52.7746 -13.5733 53.068 -13.8667 53.428 -14.08C53.8013 -14.3067 54.2146 -14.42 54.668 -14.42H63.728C64.1813 -14.42 64.588 -14.3067 64.948 -14.08C65.3213 -13.8667 65.6146 -13.5733 65.828 -13.2C66.0413 -12.84 66.148 -12.4333 66.148 -11.98V-8.96C66.148 -8.77333 66.1213 -8.58667 66.068 -8.4C66.028 -8.22667 65.9746 -8.06667 65.908 -7.92C66.2413 -7.6 66.468 -7.24667 66.588 -6.86C66.7213 -6.47333 66.788 -6.10667 66.788 -5.76V-2.42C66.788 -1.98 66.6746 -1.57333 66.448 -1.2C66.2346 -0.84 65.9413 -0.546667 65.568 -0.32C65.208 -0.106667 64.808 0 64.368 0H54.668ZM71.2514 0C70.7981 0 70.3847 -0.106667 70.0114 -0.32C69.6514 -0.546667 69.3647 -0.84 69.1514 -1.2C68.9381 -1.57333 68.8314 -1.98 68.8314 -2.42V-3H70.4714V-2.42C70.4714 -2.20667 70.5447 -2.02 70.6914 -1.86C70.8514 -1.71333 71.0381 -1.64 71.2514 -1.64H80.9514C81.1647 -1.64 81.3447 -1.71333 81.4914 -1.86C81.6514 -2.02 81.7314 -2.20667 81.7314 -2.42V-5.82C81.7314 -6.03333 81.6514 -6.21333 81.4914 -6.36C81.3447 -6.52 81.1647 -6.6 80.9514 -6.6H68.8314V-14.42H83.3714V-12.76H71.2514C71.0381 -12.76 70.8514 -12.68 70.6914 -12.52C70.5447 -12.3733 70.4714 -12.1933 70.4714 -11.98V-9.04C70.4714 -8.82667 70.5447 -8.64 70.6914 -8.48C70.8514 -8.32 71.0381 -8.24 71.2514 -8.24H80.9514C81.3914 -8.24 81.7914 -8.13333 82.1514 -7.92C82.5247 -7.70667 82.8181 -7.41333 83.0314 -7.04C83.2581 -6.68 83.3714 -6.27333 83.3714 -5.82V-2.42C83.3714 -1.98 83.2581 -1.57333 83.0314 -1.2C82.8181 -0.84 82.5247 -0.546667 82.1514 -0.32C81.7914 -0.106667 81.3914 0 80.9514 0H71.2514ZM94.453 0V-3.72H84.413V-5.56L94.253 -14.42H96.093V-5.36H98.333V-3.72H96.093V0H94.453ZM86.513 -5.36H94.453V-12.2L86.513 -5.36ZM102.462 0C102.009 0 101.596 -0.106667 101.222 -0.32C100.862 -0.546667 100.576 -0.84 100.362 -1.2C100.149 -1.57333 100.042 -1.98 100.042 -2.42V-11.98C100.042 -12.4333 100.149 -12.84 100.362 -13.2C100.576 -13.5733 100.862 -13.8667 101.222 -14.08C101.596 -14.3067 102.009 -14.42 102.462 -14.42H112.062V-12.76H102.462C102.249 -12.76 102.062 -12.68 101.902 -12.52C101.756 -12.3733 101.682 -12.1933 101.682 -11.98V-9.1C101.682 -8.88667 101.756 -8.7 101.902 -8.54C102.062 -8.38 102.249 -8.3 102.462 -8.3H112.162C112.602 -8.3 113.002 -8.19333 113.362 -7.98C113.736 -7.76667 114.029 -7.47333 114.242 -7.1C114.469 -6.74 114.582 -6.33333 114.582 -5.88V-2.42C114.582 -1.98 114.469 -1.57333 114.242 -1.2C114.029 -0.84 113.736 -0.546667 113.362 -0.32C113.002 -0.106667 112.602 0 112.162 0H102.462ZM102.462 -1.64H112.162C112.376 -1.64 112.556 -1.71333 112.702 -1.86C112.862 -2.02 112.942 -2.20667 112.942 -2.42V-5.88C112.942 -6.09333 112.862 -6.27333 112.702 -6.42C112.556 -6.58 112.376 -6.66 112.162 -6.66H101.682V-2.42C101.682 -2.20667 101.756 -2.02 101.902 -1.86C102.062 -1.71333 102.249 -1.64 102.462 -1.64ZM2.56 25C2.10667 25 1.69333 24.8933 1.32 24.68C0.96 24.4533 0.673333 24.16 0.46 23.8C0.246667 23.4267 0.14 23.02 0.14 22.58V13.04C0.14 12.5867 0.246667 12.18 0.46 11.82C0.673333 11.4467 0.96 11.1533 1.32 10.94C1.69333 10.7133 2.10667 10.6 2.56 10.6H12.26C12.7 10.6 13.1 10.7133 13.46 10.94C13.8333 11.1533 14.1267 11.4467 14.34 11.82C14.5667 12.18 14.68 12.5867 14.68 13.04V22.58C14.68 23.02 14.5667 23.4267 14.34 23.8C14.1267 24.16 13.8333 24.4533 13.46 24.68C13.1 24.8933 12.7 25 12.26 25H2.56ZM1.98 23.36H12.26C12.4733 23.36 12.6533 23.2867 12.8 23.14C12.96 22.98 13.04 22.7933 13.04 22.58V14.24L1.98 23.36ZM1.78 21.38L12.82 12.26H2.56C2.34667 12.26 2.16 12.34 2 12.5C1.85333 12.6467 1.78 12.8267 1.78 13.04V21.38ZM16.7597 25V23.36H18.3997V25H16.7597ZM24.337 25V12.44L22.117 15.1H19.977L23.757 10.6H25.997V25H24.337ZM37.9295 25V21.28H27.8895V19.44L37.7295 10.58H39.5695V19.64H41.8095V21.28H39.5695V25H37.9295ZM29.9895 19.64H37.9295V12.8L29.9895 19.64ZM45.8789 25C45.4256 25 45.0122 24.8933 44.6389 24.68C44.2789 24.4533 43.9856 24.16 43.7589 23.8C43.5456 23.4267 43.4389 23.02 43.4389 22.58V22.26H45.0989V22.58C45.0989 22.7933 45.1722 22.98 45.3189 23.14C45.4789 23.2867 45.6656 23.36 45.8789 23.36H55.5789C55.7922 23.36 55.9722 23.2867 56.1189 23.14C56.2789 22.98 56.3589 22.7933 56.3589 22.58V19.24C56.3589 19.0267 56.2789 18.8467 56.1189 18.7C55.9722 18.54 55.7922 18.46 55.5789 18.46H46.1989V16.82H54.9389C55.1522 16.82 55.3322 16.7467 55.4789 16.6C55.6389 16.44 55.7189 16.2533 55.7189 16.04V13.02C55.7189 12.8067 55.6389 12.6267 55.4789 12.48C55.3322 12.32 55.1522 12.24 54.9389 12.24H45.8789C45.6656 12.24 45.4789 12.32 45.3189 12.48C45.1722 12.6267 45.0989 12.8067 45.0989 13.02V13.54H43.4389V13.02C43.4389 12.5667 43.5456 12.16 43.7589 11.8C43.9856 11.4267 44.2789 11.1333 44.6389 10.92C45.0122 10.6933 45.4256 10.58 45.8789 10.58H54.9389C55.3922 10.58 55.7989 10.6933 56.1589 10.92C56.5322 11.1333 56.8256 11.4267 57.0389 11.8C57.2522 12.16 57.3589 12.5667 57.3589 13.02V16.04C57.3589 16.2267 57.3322 16.4133 57.2789 16.6C57.2389 16.7733 57.1856 16.9333 57.1189 17.08C57.4522 17.4 57.6789 17.7533 57.7989 18.14C57.9322 18.5267 57.9989 18.8933 57.9989 19.24V22.58C57.9989 23.02 57.8856 23.4267 57.6589 23.8C57.4456 24.16 57.1522 24.4533 56.7789 24.68C56.4189 24.8933 56.0189 25 55.5789 25H45.8789ZM62.4623 25C62.009 25 61.5957 24.8933 61.2223 24.68C60.8623 24.4533 60.5757 24.16 60.3623 23.8C60.149 23.4267 60.0423 23.02 60.0423 22.58V22H61.6823V22.58C61.6823 22.7933 61.7557 22.98 61.9023 23.14C62.0623 23.2867 62.249 23.36 62.4623 23.36H72.1623C72.3757 23.36 72.5557 23.2867 72.7023 23.14C72.8623 22.98 72.9423 22.7933 72.9423 22.58V19.18C72.9423 18.9667 72.8623 18.7867 72.7023 18.64C72.5557 18.48 72.3757 18.4 72.1623 18.4H60.0423V10.58H74.5823V12.24H62.4623C62.249 12.24 62.0623 12.32 61.9023 12.48C61.7557 12.6267 61.6823 12.8067 61.6823 13.02V15.96C61.6823 16.1733 61.7557 16.36 61.9023 16.52C62.0623 16.68 62.249 16.76 62.4623 16.76H72.1623C72.6023 16.76 73.0023 16.8667 73.3623 17.08C73.7357 17.2933 74.029 17.5867 74.2423 17.96C74.469 18.32 74.5823 18.7267 74.5823 19.18V22.58C74.5823 23.02 74.469 23.4267 74.2423 23.8C74.029 24.16 73.7357 24.4533 73.3623 24.68C73.0023 24.8933 72.6023 25 72.1623 25H62.4623ZM79.0039 25C78.5506 25 78.1372 24.8933 77.7639 24.68C77.4039 24.4533 77.1106 24.16 76.8839 23.8C76.6706 23.4267 76.5639 23.02 76.5639 22.58V22.26H78.2239V22.58C78.2239 22.7933 78.2972 22.98 78.4439 23.14C78.6039 23.2867 78.7906 23.36 79.0039 23.36H88.7039C88.9172 23.36 89.0972 23.2867 89.2439 23.14C89.4039 22.98 89.4839 22.7933 89.4839 22.58V19.24C89.4839 19.0267 89.4039 18.8467 89.2439 18.7C89.0972 18.54 88.9172 18.46 88.7039 18.46H79.3239V16.82H88.0639C88.2772 16.82 88.4572 16.7467 88.6039 16.6C88.7639 16.44 88.8439 16.2533 88.8439 16.04V13.02C88.8439 12.8067 88.7639 12.6267 88.6039 12.48C88.4572 12.32 88.2772 12.24 88.0639 12.24H79.0039C78.7906 12.24 78.6039 12.32 78.4439 12.48C78.2972 12.6267 78.2239 12.8067 78.2239 13.02V13.54H76.5639V13.02C76.5639 12.5667 76.6706 12.16 76.8839 11.8C77.1106 11.4267 77.4039 11.1333 77.7639 10.92C78.1372 10.6933 78.5506 10.58 79.0039 10.58H88.0639C88.5172 10.58 88.9239 10.6933 89.2839 10.92C89.6572 11.1333 89.9506 11.4267 90.1639 11.8C90.3772 12.16 90.4839 12.5667 90.4839 13.02V16.04C90.4839 16.2267 90.4572 16.4133 90.4039 16.6C90.3639 16.7733 90.3106 16.9333 90.2439 17.08C90.5772 17.4 90.8039 17.7533 90.9239 18.14C91.0572 18.5267 91.1239 18.8933 91.1239 19.24V22.58C91.1239 23.02 91.0106 23.4267 90.7839 23.8C90.5706 24.16 90.2772 24.4533 89.9039 24.68C89.5439 24.8933 89.1439 25 88.7039 25H79.0039ZM102.187 25V21.28H92.1473V19.44L101.987 10.58H103.827V19.64H106.067V21.28H103.827V25H102.187ZM94.2473 19.64H102.187V12.8L94.2473 19.64ZM107.777 25V19.6C107.777 19.1467 107.883 18.74 108.097 18.38C108.31 18.0067 108.597 17.7133 108.957 17.5C109.33 17.2867 109.743 17.18 110.197 17.18H119.897C120.11 17.18 120.29 17.1067 120.437 16.96C120.597 16.8 120.677 16.6133 120.677 16.4V13.02C120.677 12.8067 120.597 12.6267 120.437 12.48C120.29 12.32 120.11 12.24 119.897 12.24H110.197C109.983 12.24 109.797 12.32 109.637 12.48C109.49 12.6267 109.417 12.8067 109.417 13.02V13.58H107.777V13.02C107.777 12.5667 107.883 12.16 108.097 11.8C108.31 11.4267 108.597 11.1333 108.957 10.92C109.33 10.6933 109.743 10.58 110.197 10.58H119.897C120.337 10.58 120.737 10.6933 121.097 10.92C121.47 11.1333 121.763 11.4267 121.977 11.8C122.203 12.16 122.317 12.5667 122.317 13.02V16.4C122.317 16.84 122.203 17.2467 121.977 17.62C121.763 17.98 121.47 18.2733 121.097 18.5C120.737 18.7133 120.337 18.82 119.897 18.82H110.197C109.983 18.82 109.797 18.9 109.637 19.06C109.49 19.2067 109.417 19.3867 109.417 19.6V22.58C109.417 22.7933 109.49 22.98 109.637 23.14C109.797 23.2867 109.983 23.36 110.197 23.36H122.317V25H107.777ZM2.56 50C2.10667 50 1.69333 49.8933 1.32 49.68C0.96 49.4533 0.673333 49.16 0.46 48.8C0.246667 48.4267 0.14 48.02 0.14 47.58V38.04C0.14 37.5867 0.246667 37.18 0.46 36.82C0.673333 36.4467 0.96 36.1533 1.32 35.94C1.69333 35.7133 2.10667 35.6 2.56 35.6H12.26C12.7 35.6 13.1 35.7133 13.46 35.94C13.8333 36.1533 14.1267 36.4467 14.34 36.82C14.5667 37.18 14.68 37.5867 14.68 38.04V47.58C14.68 48.02 14.5667 48.4267 14.34 48.8C14.1267 49.16 13.8333 49.4533 13.46 49.68C13.1 49.8933 12.7 50 12.26 50H2.56ZM1.98 48.36H12.26C12.4733 48.36 12.6533 48.2867 12.8 48.14C12.96 47.98 13.04 47.7933 13.04 47.58V39.24L1.98 48.36ZM1.78 46.38L12.82 37.26H2.56C2.34667 37.26 2.16 37.34 2 37.5C1.85333 37.6467 1.78 37.8267 1.78 38.04V46.38ZM16.7597 50V48.36H18.3997V50H16.7597ZM30.117 50V46.28H20.077V44.44L29.917 35.58H31.757V44.64H33.997V46.28H31.757V50H30.117ZM22.177 44.64H30.117V37.8L22.177 44.64ZM38.0664 50C37.6131 50 37.1997 49.8933 36.8264 49.68C36.4664 49.4533 36.1731 49.16 35.9464 48.8C35.7331 48.4267 35.6264 48.02 35.6264 47.58V47.26H37.2864V47.58C37.2864 47.7933 37.3597 47.98 37.5064 48.14C37.6664 48.2867 37.8531 48.36 38.0664 48.36H47.7664C47.9797 48.36 48.1597 48.2867 48.3064 48.14C48.4664 47.98 48.5464 47.7933 48.5464 47.58V44.24C48.5464 44.0267 48.4664 43.8467 48.3064 43.7C48.1597 43.54 47.9797 43.46 47.7664 43.46H38.3864V41.82H47.1264C47.3397 41.82 47.5197 41.7467 47.6664 41.6C47.8264 41.44 47.9064 41.2533 47.9064 41.04V38.02C47.9064 37.8067 47.8264 37.6267 47.6664 37.48C47.5197 37.32 47.3397 37.24 47.1264 37.24H38.0664C37.8531 37.24 37.6664 37.32 37.5064 37.48C37.3597 37.6267 37.2864 37.8067 37.2864 38.02V38.54H35.6264V38.02C35.6264 37.5667 35.7331 37.16 35.9464 36.8C36.1731 36.4267 36.4664 36.1333 36.8264 35.92C37.1997 35.6933 37.6131 35.58 38.0664 35.58H47.1264C47.5797 35.58 47.9864 35.6933 48.3464 35.92C48.7197 36.1333 49.0131 36.4267 49.2264 36.8C49.4397 37.16 49.5464 37.5667 49.5464 38.02V41.04C49.5464 41.2267 49.5197 41.4133 49.4664 41.6C49.4264 41.7733 49.3731 41.9333 49.3064 42.08C49.6397 42.4 49.8664 42.7533 49.9864 43.14C50.1197 43.5267 50.1864 43.8933 50.1864 44.24V47.58C50.1864 48.02 50.0731 48.4267 49.8464 48.8C49.6331 49.16 49.3397 49.4533 48.9664 49.68C48.6064 49.8933 48.2064 50 47.7664 50H38.0664ZM55.4698 50V37.44L53.2498 40.1H51.1098L54.8898 35.6H57.1298V50H55.4698ZM69.0623 50V46.28H59.0223V44.44L68.8623 35.58H70.7023V44.64H72.9423V46.28H70.7023V50H69.0623ZM61.1223 44.64H69.0623V37.8L61.1223 44.64ZM74.6517 50V44.6C74.6517 44.1467 74.7584 43.74 74.9717 43.38C75.1851 43.0067 75.4717 42.7133 75.8317 42.5C76.2051 42.2867 76.6184 42.18 77.0717 42.18H86.7717C86.9851 42.18 87.1651 42.1067 87.3117 41.96C87.4717 41.8 87.5517 41.6133 87.5517 41.4V38.02C87.5517 37.8067 87.4717 37.6267 87.3117 37.48C87.1651 37.32 86.9851 37.24 86.7717 37.24H77.0717C76.8584 37.24 76.6717 37.32 76.5117 37.48C76.3651 37.6267 76.2917 37.8067 76.2917 38.02V38.58H74.6517V38.02C74.6517 37.5667 74.7584 37.16 74.9717 36.8C75.1851 36.4267 75.4717 36.1333 75.8317 35.92C76.2051 35.6933 76.6184 35.58 77.0717 35.58H86.7717C87.2117 35.58 87.6117 35.6933 87.9717 35.92C88.3451 36.1333 88.6384 36.4267 88.8517 36.8C89.0784 37.16 89.1917 37.5667 89.1917 38.02V41.4C89.1917 41.84 89.0784 42.2467 88.8517 42.62C88.6384 42.98 88.3451 43.2733 87.9717 43.5C87.6117 43.7133 87.2117 43.82 86.7717 43.82H77.0717C76.8584 43.82 76.6717 43.9 76.5117 44.06C76.3651 44.2067 76.2917 44.3867 76.2917 44.6V47.58C76.2917 47.7933 76.3651 47.98 76.5117 48.14C76.6717 48.2867 76.8584 48.36 77.0717 48.36H89.1917V50H74.6517ZM100.273 50V46.28H90.2333V44.44L100.073 35.58H101.913V44.64H104.153V46.28H101.913V50H100.273ZM92.3333 44.64H100.273V37.8L92.3333 44.64ZM105.863 50V44.6C105.863 44.1467 105.969 43.74 106.183 43.38C106.396 43.0067 106.683 42.7133 107.043 42.5C107.416 42.2867 107.829 42.18 108.283 42.18H117.983C118.196 42.18 118.376 42.1067 118.523 41.96C118.683 41.8 118.763 41.6133 118.763 41.4V38.02C118.763 37.8067 118.683 37.6267 118.523 37.48C118.376 37.32 118.196 37.24 117.983 37.24H108.283C108.069 37.24 107.883 37.32 107.723 37.48C107.576 37.6267 107.503 37.8067 107.503 38.02V38.58H105.863V38.02C105.863 37.5667 105.969 37.16 106.183 36.8C106.396 36.4267 106.683 36.1333 107.043 35.92C107.416 35.6933 107.829 35.58 108.283 35.58H117.983C118.423 35.58 118.823 35.6933 119.183 35.92C119.556 36.1333 119.849 36.4267 120.063 36.8C120.289 37.16 120.403 37.5667 120.403 38.02V41.4C120.403 41.84 120.289 42.2467 120.063 42.62C119.849 42.98 119.556 43.2733 119.183 43.5C118.823 43.7133 118.423 43.82 117.983 43.82H108.283C108.069 43.82 107.883 43.9 107.723 44.06C107.576 44.2067 107.503 44.3867 107.503 44.6V47.58C107.503 47.7933 107.576 47.98 107.723 48.14C107.883 48.2867 108.069 48.36 108.283 48.36H120.403V50H105.863ZM2.56 75C2.10667 75 1.69333 74.8933 1.32 74.68C0.96 74.4533 0.673333 74.16 0.46 73.8C0.246667 73.4267 0.14 73.02 0.14 72.58V63.04C0.14 62.5867 0.246667 62.18 0.46 61.82C0.673333 61.4467 0.96 61.1533 1.32 60.94C1.69333 60.7133 2.10667 60.6 2.56 60.6H12.26C12.7 60.6 13.1 60.7133 13.46 60.94C13.8333 61.1533 14.1267 61.4467 14.34 61.82C14.5667 62.18 14.68 62.5867 14.68 63.04V72.58C14.68 73.02 14.5667 73.4267 14.34 73.8C14.1267 74.16 13.8333 74.4533 13.46 74.68C13.1 74.8933 12.7 75 12.26 75H2.56ZM1.98 73.36H12.26C12.4733 73.36 12.6533 73.2867 12.8 73.14C12.96 72.98 13.04 72.7933 13.04 72.58V64.24L1.98 73.36ZM1.78 71.38L12.82 62.26H2.56C2.34667 62.26 2.16 62.34 2 62.5C1.85333 62.6467 1.78 62.8267 1.78 63.04V71.38ZM16.7597 75V73.36H18.3997V75H16.7597ZM23.517 75C23.0637 75 22.6504 74.8933 22.277 74.68C21.917 74.4533 21.6304 74.16 21.417 73.8C21.2037 73.4267 21.097 73.02 21.097 72.58V72H22.737V72.58C22.737 72.7933 22.8104 72.98 22.957 73.14C23.117 73.2867 23.3037 73.36 23.517 73.36H33.217C33.4304 73.36 33.6104 73.2867 33.757 73.14C33.917 72.98 33.997 72.7933 33.997 72.58V69.18C33.997 68.9667 33.917 68.7867 33.757 68.64C33.6104 68.48 33.4304 68.4 33.217 68.4H21.097V60.58H35.637V62.24H23.517C23.3037 62.24 23.117 62.32 22.957 62.48C22.8104 62.6267 22.737 62.8067 22.737 63.02V65.96C22.737 66.1733 22.8104 66.36 22.957 66.52C23.117 66.68 23.3037 66.76 23.517 66.76H33.217C33.657 66.76 34.057 66.8667 34.417 67.08C34.7904 67.2933 35.0837 67.5867 35.297 67.96C35.5237 68.32 35.637 68.7267 35.637 69.18V72.58C35.637 73.02 35.5237 73.4267 35.297 73.8C35.0837 74.16 34.7904 74.4533 34.417 74.68C34.057 74.8933 33.657 75 33.217 75H23.517ZM40.1186 75C39.6653 75 39.2519 74.8933 38.8786 74.68C38.5186 74.4533 38.2319 74.16 38.0186 73.8C37.8053 73.4267 37.6986 73.02 37.6986 72.58V63.02C37.6986 62.5667 37.8053 62.16 38.0186 61.8C38.2319 61.4267 38.5186 61.1333 38.8786 60.92C39.2519 60.6933 39.6653 60.58 40.1186 60.58H49.7186V62.24H40.1186C39.9053 62.24 39.7186 62.32 39.5586 62.48C39.4119 62.6267 39.3386 62.8067 39.3386 63.02V65.9C39.3386 66.1133 39.4119 66.3 39.5586 66.46C39.7186 66.62 39.9053 66.7 40.1186 66.7H49.8186C50.2586 66.7 50.6586 66.8067 51.0186 67.02C51.3919 67.2333 51.6853 67.5267 51.8986 67.9C52.1253 68.26 52.2386 68.6667 52.2386 69.12V72.58C52.2386 73.02 52.1253 73.4267 51.8986 73.8C51.6853 74.16 51.3919 74.4533 51.0186 74.68C50.6586 74.8933 50.2586 75 49.8186 75H40.1186ZM40.1186 73.36H49.8186C50.0319 73.36 50.2119 73.2867 50.3586 73.14C50.5186 72.98 50.5986 72.7933 50.5986 72.58V69.12C50.5986 68.9067 50.5186 68.7267 50.3586 68.58C50.2119 68.42 50.0319 68.34 49.8186 68.34H39.3386V72.58C39.3386 72.7933 39.4119 72.98 39.5586 73.14C39.7186 73.2867 39.9053 73.36 40.1186 73.36ZM63.4048 75V63.02C63.4048 62.8067 63.3248 62.6267 63.1648 62.48C63.0182 62.32 62.8382 62.24 62.6248 62.24H53.0248V60.58H62.6248C63.0648 60.58 63.4648 60.6933 63.8248 60.92C64.1982 61.1333 64.4915 61.4267 64.7048 61.8C64.9315 62.16 65.0448 62.5667 65.0448 63.02V75H63.4048ZM76.608 75V63.02C76.608 62.8067 76.528 62.6267 76.368 62.48C76.2213 62.32 76.0413 62.24 75.828 62.24H66.228V60.58H75.828C76.268 60.58 76.668 60.6933 77.028 60.92C77.4013 61.1333 77.6946 61.4267 77.908 61.8C78.1346 62.16 78.248 62.5667 78.248 63.02V75H76.608ZM82.8711 75C82.4178 75 82.0044 74.8933 81.6311 74.68C81.2711 74.4533 80.9778 74.16 80.7511 73.8C80.5378 73.4267 80.4311 73.02 80.4311 72.58V72.26H82.0911V72.58C82.0911 72.7933 82.1644 72.98 82.3111 73.14C82.4711 73.2867 82.6578 73.36 82.8711 73.36H92.5711C92.7844 73.36 92.9644 73.2867 93.1111 73.14C93.2711 72.98 93.3511 72.7933 93.3511 72.58V69.24C93.3511 69.0267 93.2711 68.8467 93.1111 68.7C92.9644 68.54 92.7844 68.46 92.5711 68.46H83.1911V66.82H91.9311C92.1444 66.82 92.3244 66.7467 92.4711 66.6C92.6311 66.44 92.7111 66.2533 92.7111 66.04V63.02C92.7111 62.8067 92.6311 62.6267 92.4711 62.48C92.3244 62.32 92.1444 62.24 91.9311 62.24H82.8711C82.6578 62.24 82.4711 62.32 82.3111 62.48C82.1644 62.6267 82.0911 62.8067 82.0911 63.02V63.54H80.4311V63.02C80.4311 62.5667 80.5378 62.16 80.7511 61.8C80.9778 61.4267 81.2711 61.1333 81.6311 60.92C82.0044 60.6933 82.4178 60.58 82.8711 60.58H91.9311C92.3844 60.58 92.7911 60.6933 93.1511 60.92C93.5244 61.1333 93.8178 61.4267 94.0311 61.8C94.2444 62.16 94.3511 62.5667 94.3511 63.02V66.04C94.3511 66.2267 94.3244 66.4133 94.2711 66.6C94.2311 66.7733 94.1778 66.9333 94.1111 67.08C94.4444 67.4 94.6711 67.7533 94.7911 68.14C94.9244 68.5267 94.9911 68.8933 94.9911 69.24V72.58C94.9911 73.02 94.8778 73.4267 94.6511 73.8C94.4378 74.16 94.1444 74.4533 93.7711 74.68C93.4111 74.8933 93.0111 75 92.5711 75H82.8711ZM106.335 75V63.02C106.335 62.8067 106.255 62.6267 106.095 62.48C105.948 62.32 105.768 62.24 105.555 62.24H95.9545V60.58H105.555C105.995 60.58 106.395 60.6933 106.755 60.92C107.128 61.1333 107.421 61.4267 107.635 61.8C107.861 62.16 107.975 62.5667 107.975 63.02V75H106.335ZM112.598 75C112.144 75 111.731 74.8933 111.358 74.68C110.998 74.4533 110.704 74.16 110.478 73.8C110.264 73.4267 110.158 73.02 110.158 72.58V72.26H111.818V72.58C111.818 72.7933 111.891 72.98 112.038 73.14C112.198 73.2867 112.384 73.36 112.598 73.36H122.298C122.511 73.36 122.691 73.2867 122.838 73.14C122.998 72.98 123.078 72.7933 123.078 72.58V69.24C123.078 69.0267 122.998 68.8467 122.838 68.7C122.691 68.54 122.511 68.46 122.298 68.46H112.918V66.82H121.658C121.871 66.82 122.051 66.7467 122.198 66.6C122.358 66.44 122.438 66.2533 122.438 66.04V63.02C122.438 62.8067 122.358 62.6267 122.198 62.48C122.051 62.32 121.871 62.24 121.658 62.24H112.598C112.384 62.24 112.198 62.32 112.038 62.48C111.891 62.6267 111.818 62.8067 111.818 63.02V63.54H110.158V63.02C110.158 62.5667 110.264 62.16 110.478 61.8C110.704 61.4267 110.998 61.1333 111.358 60.92C111.731 60.6933 112.144 60.58 112.598 60.58H121.658C122.111 60.58 122.518 60.6933 122.878 60.92C123.251 61.1333 123.544 61.4267 123.758 61.8C123.971 62.16 124.078 62.5667 124.078 63.02V66.04C124.078 66.2267 124.051 66.4133 123.998 66.6C123.958 66.7733 123.904 66.9333 123.838 67.08C124.171 67.4 124.398 67.7533 124.518 68.14C124.651 68.5267 124.718 68.8933 124.718 69.24V72.58C124.718 73.02 124.604 73.4267 124.378 73.8C124.164 74.16 123.871 74.4533 123.498 74.68C123.138 74.8933 122.738 75 122.298 75H112.598ZM2.56 100C2.10667 100 1.69333 99.8933 1.32 99.68C0.96 99.4533 0.673333 99.16 0.46 98.8C0.246667 98.4267 0.14 98.02 0.14 97.58V88.04C0.14 87.5867 0.246667 87.18 0.46 86.82C0.673333 86.4467 0.96 86.1533 1.32 85.94C1.69333 85.7133 2.10667 85.6 2.56 85.6H12.26C12.7 85.6 13.1 85.7133 13.46 85.94C13.8333 86.1533 14.1267 86.4467 14.34 86.82C14.5667 87.18 14.68 87.5867 14.68 88.04V97.58C14.68 98.02 14.5667 98.4267 14.34 98.8C14.1267 99.16 13.8333 99.4533 13.46 99.68C13.1 99.8933 12.7 100 12.26 100H2.56ZM1.98 98.36H12.26C12.4733 98.36 12.6533 98.2867 12.8 98.14C12.96 97.98 13.04 97.7933 13.04 97.58V89.24L1.98 98.36ZM1.78 96.38L12.82 87.26H2.56C2.34667 87.26 2.16 87.34 2 87.5C1.85333 87.6467 1.78 87.8267 1.78 88.04V96.38ZM16.7597 100V98.36H18.3997V100H16.7597ZM30.117 100V96.28H20.077V94.44L29.917 85.58H31.757V94.64H33.997V96.28H31.757V100H30.117ZM22.177 94.64H30.117V87.8L22.177 94.64ZM38.9464 100V87.44L36.7264 90.1H34.5864L38.3664 85.6H40.6064V100H38.9464ZM45.9389 100C45.4856 100 45.0722 99.8933 44.6989 99.68C44.3389 99.4533 44.0522 99.16 43.8389 98.8C43.6256 98.4267 43.5189 98.02 43.5189 97.58V97H45.1589V97.58C45.1589 97.7933 45.2322 97.98 45.3789 98.14C45.5389 98.2867 45.7256 98.36 45.9389 98.36H55.6389C55.8522 98.36 56.0322 98.2867 56.1789 98.14C56.3389 97.98 56.4189 97.7933 56.4189 97.58V94.18C56.4189 93.9667 56.3389 93.7867 56.1789 93.64C56.0322 93.48 55.8522 93.4 55.6389 93.4H43.5189V85.58H58.0589V87.24H45.9389C45.7256 87.24 45.5389 87.32 45.3789 87.48C45.2322 87.6267 45.1589 87.8067 45.1589 88.02V90.96C45.1589 91.1733 45.2322 91.36 45.3789 91.52C45.5389 91.68 45.7256 91.76 45.9389 91.76H55.6389C56.0789 91.76 56.4789 91.8667 56.8389 92.08C57.2122 92.2933 57.5056 92.5867 57.7189 92.96C57.9456 93.32 58.0589 93.7267 58.0589 94.18V97.58C58.0589 98.02 57.9456 98.4267 57.7189 98.8C57.5056 99.16 57.2122 99.4533 56.8389 99.68C56.4789 99.8933 56.0789 100 55.6389 100H45.9389ZM62.4805 100C62.0271 100 61.6138 99.8933 61.2405 99.68C60.8805 99.4533 60.5871 99.16 60.3605 98.8C60.1471 98.4267 60.0405 98.02 60.0405 97.58V97.26H61.7005V97.58C61.7005 97.7933 61.7738 97.98 61.9205 98.14C62.0805 98.2867 62.2671 98.36 62.4805 98.36H72.1805C72.3938 98.36 72.5738 98.2867 72.7205 98.14C72.8805 97.98 72.9605 97.7933 72.9605 97.58V94.24C72.9605 94.0267 72.8805 93.8467 72.7205 93.7C72.5738 93.54 72.3938 93.46 72.1805 93.46H62.8005V91.82H71.5405C71.7538 91.82 71.9338 91.7467 72.0805 91.6C72.2405 91.44 72.3205 91.2533 72.3205 91.04V88.02C72.3205 87.8067 72.2405 87.6267 72.0805 87.48C71.9338 87.32 71.7538 87.24 71.5405 87.24H62.4805C62.2671 87.24 62.0805 87.32 61.9205 87.48C61.7738 87.6267 61.7005 87.8067 61.7005 88.02V88.54H60.0405V88.02C60.0405 87.5667 60.1471 87.16 60.3605 86.8C60.5871 86.4267 60.8805 86.1333 61.2405 85.92C61.6138 85.6933 62.0271 85.58 62.4805 85.58H71.5405C71.9938 85.58 72.4005 85.6933 72.7605 85.92C73.1338 86.1333 73.4271 86.4267 73.6405 86.8C73.8538 87.16 73.9605 87.5667 73.9605 88.02V91.04C73.9605 91.2267 73.9338 91.4133 73.8805 91.6C73.8405 91.7733 73.7871 91.9333 73.7205 92.08C74.0538 92.4 74.2805 92.7533 74.4005 93.14C74.5338 93.5267 74.6005 93.8933 74.6005 94.24V97.58C74.6005 98.02 74.4871 98.4267 74.2605 98.8C74.0471 99.16 73.7538 99.4533 73.3805 99.68C73.0205 99.8933 72.6205 100 72.1805 100H62.4805ZM79.0639 100C78.6106 100 78.1972 99.8933 77.8239 99.68C77.4639 99.4533 77.1772 99.16 76.9639 98.8C76.7506 98.4267 76.6439 98.02 76.6439 97.58V88.02C76.6439 87.5667 76.7506 87.16 76.9639 86.8C77.1772 86.4267 77.4639 86.1333 77.8239 85.92C78.1972 85.6933 78.6106 85.58 79.0639 85.58H88.6639V87.24H79.0639C78.8506 87.24 78.6639 87.32 78.5039 87.48C78.3572 87.6267 78.2839 87.8067 78.2839 88.02V90.9C78.2839 91.1133 78.3572 91.3 78.5039 91.46C78.6639 91.62 78.8506 91.7 79.0639 91.7H88.7639C89.2039 91.7 89.6039 91.8067 89.9639 92.02C90.3372 92.2333 90.6306 92.5267 90.8439 92.9C91.0706 93.26 91.1839 93.6667 91.1839 94.12V97.58C91.1839 98.02 91.0706 98.4267 90.8439 98.8C90.6306 99.16 90.3372 99.4533 89.9639 99.68C89.6039 99.8933 89.2039 100 88.7639 100H79.0639ZM79.0639 98.36H88.7639C88.9772 98.36 89.1572 98.2867 89.3039 98.14C89.4639 97.98 89.5439 97.7933 89.5439 97.58V94.12C89.5439 93.9067 89.4639 93.7267 89.3039 93.58C89.1572 93.42 88.9772 93.34 88.7639 93.34H78.2839V97.58C78.2839 97.7933 78.3572 97.98 78.5039 98.14C78.6639 98.2867 78.8506 98.36 79.0639 98.36ZM93.0502 100V94.6C93.0502 94.1467 93.1568 93.74 93.3702 93.38C93.5835 93.0067 93.8702 92.7133 94.2302 92.5C94.6035 92.2867 95.0168 92.18 95.4702 92.18H105.17C105.383 92.18 105.563 92.1067 105.71 91.96C105.87 91.8 105.95 91.6133 105.95 91.4V88.02C105.95 87.8067 105.87 87.6267 105.71 87.48C105.563 87.32 105.383 87.24 105.17 87.24H95.4702C95.2568 87.24 95.0702 87.32 94.9102 87.48C94.7635 87.6267 94.6902 87.8067 94.6902 88.02V88.58H93.0502V88.02C93.0502 87.5667 93.1568 87.16 93.3702 86.8C93.5835 86.4267 93.8702 86.1333 94.2302 85.92C94.6035 85.6933 95.0168 85.58 95.4702 85.58H105.17C105.61 85.58 106.01 85.6933 106.37 85.92C106.743 86.1333 107.037 86.4267 107.25 86.8C107.477 87.16 107.59 87.5667 107.59 88.02V91.4C107.59 91.84 107.477 92.2467 107.25 92.62C107.037 92.98 106.743 93.2733 106.37 93.5C106.01 93.7133 105.61 93.82 105.17 93.82H95.4702C95.2568 93.82 95.0702 93.9 94.9102 94.06C94.7635 94.2067 94.6902 94.3867 94.6902 94.6V97.58C94.6902 97.7933 94.7635 97.98 94.9102 98.14C95.0702 98.2867 95.2568 98.36 95.4702 98.36H107.59V100H93.0502ZM112.012 100C111.558 100 111.145 99.8933 110.772 99.68C110.412 99.4533 110.118 99.16 109.892 98.8C109.678 98.4267 109.572 98.02 109.572 97.58V97.26H111.232V97.58C111.232 97.7933 111.305 97.98 111.452 98.14C111.612 98.2867 111.798 98.36 112.012 98.36H121.712C121.925 98.36 122.105 98.2867 122.252 98.14C122.412 97.98 122.492 97.7933 122.492 97.58V94.24C122.492 94.0267 122.412 93.8467 122.252 93.7C122.105 93.54 121.925 93.46 121.712 93.46H112.332V91.82H121.072C121.285 91.82 121.465 91.7467 121.612 91.6C121.772 91.44 121.852 91.2533 121.852 91.04V88.02C121.852 87.8067 121.772 87.6267 121.612 87.48C121.465 87.32 121.285 87.24 121.072 87.24H112.012C111.798 87.24 111.612 87.32 111.452 87.48C111.305 87.6267 111.232 87.8067 111.232 88.02V88.54H109.572V88.02C109.572 87.5667 109.678 87.16 109.892 86.8C110.118 86.4267 110.412 86.1333 110.772 85.92C111.145 85.6933 111.558 85.58 112.012 85.58H121.072C121.525 85.58 121.932 85.6933 122.292 85.92C122.665 86.1333 122.958 86.4267 123.172 86.8C123.385 87.16 123.492 87.5667 123.492 88.02V91.04C123.492 91.2267 123.465 91.4133 123.412 91.6C123.372 91.7733 123.318 91.9333 123.252 92.08C123.585 92.4 123.812 92.7533 123.932 93.14C124.065 93.5267 124.132 93.8933 124.132 94.24V97.58C124.132 98.02 124.018 98.4267 123.792 98.8C123.578 99.16 123.285 99.4533 122.912 99.68C122.552 99.8933 122.152 100 121.712 100H112.012Z" fill="white" fill-opacity="0.05"/>
</svg>
