<svg width="397" height="384" viewBox="0 0 397 384" fill="none" xmlns="http://www.w3.org/2000/svg">
<g opacity="0.2">
<rect x="389" y="9.5" width="5" height="3" fill="#F0B537" fill-opacity="0.5"/>
<rect x="395" y="9.5" width="2" height="3" fill="#F0B537" fill-opacity="0.5"/>
</g>
<g opacity="0.2">
<rect x="389" y="14.5" width="6" height="3" fill="#F0B537" fill-opacity="0.5"/>
<rect x="396" y="14.5" width="1" height="3" fill="#F0B537" fill-opacity="0.5"/>
</g>
<g opacity="0.2">
<rect x="389" y="19.5" width="3" height="3" fill="#F0B537" fill-opacity="0.5"/>
<rect x="393" y="19.5" width="4" height="3" fill="#F0B537" fill-opacity="0.5"/>
</g>
<g opacity="0.2">
<rect x="389" y="24.5" width="4" height="3" fill="#F0B537" fill-opacity="0.5"/>
<rect x="394" y="24.5" width="3" height="3" fill="#F0B537" fill-opacity="0.5"/>
</g>
<g opacity="0.2">
<rect x="389" y="29.5" width="3" height="3" fill="#F0B537" fill-opacity="0.5"/>
<rect x="393" y="29.5" width="4" height="3" fill="#F0B537" fill-opacity="0.5"/>
</g>
<g opacity="0.2">
<rect x="389" y="34.5" width="3" height="3" fill="#F0B537" fill-opacity="0.5"/>
<rect x="393" y="34.5" width="4" height="3" fill="#F0B537" fill-opacity="0.5"/>
</g>
<g opacity="0.2">
<rect x="389" y="39.5" width="5" height="3" fill="#F0B537" fill-opacity="0.5"/>
<rect x="395" y="39.5" width="2" height="3" fill="#F0B537" fill-opacity="0.5"/>
</g>
<g opacity="0.2">
<rect x="389" y="44.5" width="6" height="3" fill="#F0B537" fill-opacity="0.5"/>
<rect x="396" y="44.5" width="1" height="3" fill="#F0B537" fill-opacity="0.5"/>
</g>
<g opacity="0.2">
<rect x="389" y="49.5" width="3" height="3" fill="#F0B537" fill-opacity="0.5"/>
<rect x="393" y="49.5" width="4" height="3" fill="#F0B537" fill-opacity="0.5"/>
</g>
<g opacity="0.2">
<rect x="389" y="54.5" width="4" height="3" fill="#F0B537" fill-opacity="0.5"/>
<rect x="394" y="54.5" width="3" height="3" fill="#F0B537" fill-opacity="0.5"/>
</g>
<g opacity="0.2">
<rect x="389" y="59.5" width="3" height="3" fill="#F0B537" fill-opacity="0.5"/>
<rect x="393" y="59.5" width="4" height="3" fill="#F0B537" fill-opacity="0.5"/>
</g>
<g opacity="0.2">
<rect x="389" y="64.5" width="3" height="3" fill="#F0B537" fill-opacity="0.5"/>
<rect x="393" y="64.5" width="4" height="3" fill="#F0B537" fill-opacity="0.5"/>
</g>
<g opacity="0.2">
<rect x="389" y="69.5" width="5" height="3" fill="#F0B537" fill-opacity="0.5"/>
<rect x="395" y="69.5" width="2" height="3" fill="#F0B537" fill-opacity="0.5"/>
</g>
<g opacity="0.2">
<rect x="389" y="74.5" width="6" height="3" fill="#F0B537" fill-opacity="0.5"/>
<rect x="396" y="74.5" width="1" height="3" fill="#F0B537" fill-opacity="0.5"/>
</g>
<g opacity="0.2">
<rect x="389" y="79.5" width="3" height="3" fill="#F0B537" fill-opacity="0.5"/>
<rect x="393" y="79.5" width="4" height="3" fill="#F0B537" fill-opacity="0.5"/>
</g>
<g opacity="0.2">
<rect x="389" y="84.5" width="4" height="3" fill="#F0B537" fill-opacity="0.5"/>
<rect x="394" y="84.5" width="3" height="3" fill="#F0B537" fill-opacity="0.5"/>
</g>
<g opacity="0.2">
<rect x="389" y="89.5" width="3" height="3" fill="#F0B537" fill-opacity="0.5"/>
<rect x="393" y="89.5" width="4" height="3" fill="#F0B537" fill-opacity="0.5"/>
</g>
<g opacity="0.2">
<rect x="389" y="94.5" width="3" height="3" fill="#F0B537" fill-opacity="0.5"/>
<rect x="393" y="94.5" width="4" height="3" fill="#F0B537" fill-opacity="0.5"/>
</g>
<g opacity="0.2">
<rect x="389" y="99.5" width="5" height="3" fill="#F0B537" fill-opacity="0.5"/>
<rect x="395" y="99.5" width="2" height="3" fill="#F0B537" fill-opacity="0.5"/>
</g>
<g opacity="0.2">
<rect x="389" y="104.5" width="6" height="3" fill="#F0B537" fill-opacity="0.5"/>
<rect x="396" y="104.5" width="1" height="3" fill="#F0B537" fill-opacity="0.5"/>
</g>
<g opacity="0.2">
<rect x="389" y="109.5" width="3" height="3" fill="#F0B537" fill-opacity="0.5"/>
<rect x="393" y="109.5" width="4" height="3" fill="#F0B537" fill-opacity="0.5"/>
</g>
<g opacity="0.2">
<rect x="389" y="114.5" width="4" height="3" fill="#F0B537" fill-opacity="0.5"/>
<rect x="394" y="114.5" width="3" height="3" fill="#F0B537" fill-opacity="0.5"/>
</g>
<g opacity="0.2">
<rect x="389" y="119.5" width="3" height="3" fill="#F0B537" fill-opacity="0.5"/>
<rect x="393" y="119.5" width="4" height="3" fill="#F0B537" fill-opacity="0.5"/>
</g>
<g opacity="0.2">
<rect x="389" y="124.5" width="3" height="3" fill="#F0B537" fill-opacity="0.5"/>
<rect x="393" y="124.5" width="4" height="3" fill="#F0B537" fill-opacity="0.5"/>
</g>
<g opacity="0.2">
<rect x="389" y="129.5" width="5" height="3" fill="#F0B537" fill-opacity="0.5"/>
<rect x="395" y="129.5" width="2" height="3" fill="#F0B537" fill-opacity="0.5"/>
</g>
<g opacity="0.2">
<rect x="389" y="134.5" width="6" height="3" fill="#F0B537" fill-opacity="0.5"/>
<rect x="396" y="134.5" width="1" height="3" fill="#F0B537" fill-opacity="0.5"/>
</g>
<g opacity="0.2">
<rect x="389" y="139.5" width="3" height="3" fill="#F0B537" fill-opacity="0.5"/>
<rect x="393" y="139.5" width="4" height="3" fill="#F0B537" fill-opacity="0.5"/>
</g>
<g opacity="0.2">
<rect x="389" y="144.5" width="4" height="3" fill="#F0B537" fill-opacity="0.5"/>
<rect x="394" y="144.5" width="3" height="3" fill="#F0B537" fill-opacity="0.5"/>
</g>
<g opacity="0.2">
<rect x="389" y="149.5" width="3" height="3" fill="#F0B537" fill-opacity="0.5"/>
<rect x="393" y="149.5" width="4" height="3" fill="#F0B537" fill-opacity="0.5"/>
</g>
<g opacity="0.2">
<rect x="389" y="154.5" width="3" height="3" fill="#F0B537" fill-opacity="0.5"/>
<rect x="393" y="154.5" width="4" height="3" fill="#F0B537" fill-opacity="0.5"/>
</g>
<g opacity="0.2">
<rect x="389" y="159.5" width="5" height="3" fill="#F0B537" fill-opacity="0.5"/>
<rect x="395" y="159.5" width="2" height="3" fill="#F0B537" fill-opacity="0.5"/>
</g>
<g opacity="0.2">
<rect x="389" y="164.5" width="6" height="3" fill="#F0B537" fill-opacity="0.5"/>
<rect x="396" y="164.5" width="1" height="3" fill="#F0B537" fill-opacity="0.5"/>
</g>
<g opacity="0.2">
<rect x="389" y="169.5" width="3" height="3" fill="#F0B537" fill-opacity="0.5"/>
<rect x="393" y="169.5" width="4" height="3" fill="#F0B537" fill-opacity="0.5"/>
</g>
<g opacity="0.2">
<rect x="389" y="174.5" width="4" height="3" fill="#F0B537" fill-opacity="0.5"/>
<rect x="394" y="174.5" width="3" height="3" fill="#F0B537" fill-opacity="0.5"/>
</g>
<g opacity="0.2">
<rect x="389" y="179.5" width="3" height="3" fill="#F0B537" fill-opacity="0.5"/>
<rect x="393" y="179.5" width="4" height="3" fill="#F0B537" fill-opacity="0.5"/>
</g>
<g opacity="0.2">
<rect x="389" y="184.5" width="3" height="3" fill="#F0B537" fill-opacity="0.5"/>
<rect x="393" y="184.5" width="4" height="3" fill="#F0B537" fill-opacity="0.5"/>
</g>
<g opacity="0.2">
<rect x="389" y="189.5" width="5" height="3" fill="#F0B537" fill-opacity="0.5"/>
<rect x="395" y="189.5" width="2" height="3" fill="#F0B537" fill-opacity="0.5"/>
</g>
<g opacity="0.2">
<rect x="389" y="194.5" width="6" height="3" fill="#F0B537" fill-opacity="0.5"/>
<rect x="396" y="194.5" width="1" height="3" fill="#F0B537" fill-opacity="0.5"/>
</g>
<g opacity="0.2">
<rect x="389" y="199.5" width="3" height="3" fill="#F0B537" fill-opacity="0.5"/>
<rect x="393" y="199.5" width="4" height="3" fill="#F0B537" fill-opacity="0.5"/>
</g>
<g opacity="0.2">
<rect x="389" y="204.5" width="4" height="3" fill="#F0B537" fill-opacity="0.5"/>
<rect x="394" y="204.5" width="3" height="3" fill="#F0B537" fill-opacity="0.5"/>
</g>
<g opacity="0.2">
<rect x="389" y="209.5" width="3" height="3" fill="#F0B537" fill-opacity="0.5"/>
<rect x="393" y="209.5" width="4" height="3" fill="#F0B537" fill-opacity="0.5"/>
</g>
<g opacity="0.2">
<rect x="389" y="214.5" width="3" height="3" fill="#F0B537" fill-opacity="0.5"/>
<rect x="393" y="214.5" width="4" height="3" fill="#F0B537" fill-opacity="0.5"/>
</g>
<g opacity="0.2">
<rect x="389" y="219.5" width="5" height="3" fill="#F0B537" fill-opacity="0.5"/>
<rect x="395" y="219.5" width="2" height="3" fill="#F0B537" fill-opacity="0.5"/>
</g>
<g opacity="0.2">
<rect x="389" y="224.5" width="6" height="3" fill="#F0B537" fill-opacity="0.5"/>
<rect x="396" y="224.5" width="1" height="3" fill="#F0B537" fill-opacity="0.5"/>
</g>
<g opacity="0.2">
<rect x="389" y="229.5" width="3" height="3" fill="#F0B537" fill-opacity="0.5"/>
<rect x="393" y="229.5" width="4" height="3" fill="#F0B537" fill-opacity="0.5"/>
</g>
<g opacity="0.2">
<rect x="389" y="234.5" width="4" height="3" fill="#F0B537" fill-opacity="0.5"/>
<rect x="394" y="234.5" width="3" height="3" fill="#F0B537" fill-opacity="0.5"/>
</g>
<g opacity="0.2">
<rect x="389" y="239.5" width="3" height="3" fill="#F0B537" fill-opacity="0.5"/>
<rect x="393" y="239.5" width="4" height="3" fill="#F0B537" fill-opacity="0.5"/>
</g>
<g opacity="0.2">
<rect x="389" y="244.5" width="3" height="3" fill="#F0B537" fill-opacity="0.5"/>
<rect x="393" y="244.5" width="4" height="3" fill="#F0B537" fill-opacity="0.5"/>
</g>
<g opacity="0.2">
<rect x="389" y="249.5" width="5" height="3" fill="#F0B537" fill-opacity="0.5"/>
<rect x="395" y="249.5" width="2" height="3" fill="#F0B537" fill-opacity="0.5"/>
</g>
<g opacity="0.2">
<rect x="389" y="254.5" width="6" height="3" fill="#F0B537" fill-opacity="0.5"/>
<rect x="396" y="254.5" width="1" height="3" fill="#F0B537" fill-opacity="0.5"/>
</g>
<g opacity="0.2">
<rect x="389" y="259.5" width="3" height="3" fill="#F0B537" fill-opacity="0.5"/>
<rect x="393" y="259.5" width="4" height="3" fill="#F0B537" fill-opacity="0.5"/>
</g>
<g opacity="0.2">
<rect x="389" y="264.5" width="4" height="3" fill="#F0B537" fill-opacity="0.5"/>
<rect x="394" y="264.5" width="3" height="3" fill="#F0B537" fill-opacity="0.5"/>
</g>
<g opacity="0.2">
<rect x="389" y="269.5" width="3" height="3" fill="#F0B537" fill-opacity="0.5"/>
<rect x="393" y="269.5" width="4" height="3" fill="#F0B537" fill-opacity="0.5"/>
</g>
<g opacity="0.2">
<rect x="389" y="274.5" width="3" height="3" fill="#F0B537" fill-opacity="0.5"/>
<rect x="393" y="274.5" width="4" height="3" fill="#F0B537" fill-opacity="0.5"/>
</g>
<g opacity="0.2">
<rect x="389" y="279.5" width="5" height="3" fill="#F0B537" fill-opacity="0.5"/>
<rect x="395" y="279.5" width="2" height="3" fill="#F0B537" fill-opacity="0.5"/>
</g>
<g opacity="0.2">
<rect x="389" y="284.5" width="6" height="3" fill="#F0B537" fill-opacity="0.5"/>
<rect x="396" y="284.5" width="1" height="3" fill="#F0B537" fill-opacity="0.5"/>
</g>
<g opacity="0.2">
<rect x="389" y="289.5" width="3" height="3" fill="#F0B537" fill-opacity="0.5"/>
<rect x="393" y="289.5" width="4" height="3" fill="#F0B537" fill-opacity="0.5"/>
</g>
<g opacity="0.2">
<rect x="389" y="294.5" width="4" height="3" fill="#F0B537" fill-opacity="0.5"/>
<rect x="394" y="294.5" width="3" height="3" fill="#F0B537" fill-opacity="0.5"/>
</g>
<g opacity="0.2">
<rect x="389" y="299.5" width="3" height="3" fill="#F0B537" fill-opacity="0.5"/>
<rect x="393" y="299.5" width="4" height="3" fill="#F0B537" fill-opacity="0.5"/>
</g>
<g opacity="0.2">
<rect x="389" y="304.5" width="3" height="3" fill="#F0B537" fill-opacity="0.5"/>
<rect x="393" y="304.5" width="4" height="3" fill="#F0B537" fill-opacity="0.5"/>
</g>
<g opacity="0.2">
<rect x="389" y="309.5" width="5" height="3" fill="#F0B537" fill-opacity="0.5"/>
<rect x="395" y="309.5" width="2" height="3" fill="#F0B537" fill-opacity="0.5"/>
</g>
<g opacity="0.2">
<rect x="389" y="314.5" width="6" height="3" fill="#F0B537" fill-opacity="0.5"/>
<rect x="396" y="314.5" width="1" height="3" fill="#F0B537" fill-opacity="0.5"/>
</g>
<g opacity="0.2">
<rect x="389" y="319.5" width="3" height="3" fill="#F0B537" fill-opacity="0.5"/>
<rect x="393" y="319.5" width="4" height="3" fill="#F0B537" fill-opacity="0.5"/>
</g>
<g opacity="0.2">
<rect x="389" y="324.5" width="4" height="3" fill="#F0B537" fill-opacity="0.5"/>
<rect x="394" y="324.5" width="3" height="3" fill="#F0B537" fill-opacity="0.5"/>
</g>
<g opacity="0.2">
<rect x="389" y="329.5" width="3" height="3" fill="#F0B537" fill-opacity="0.5"/>
<rect x="393" y="329.5" width="4" height="3" fill="#F0B537" fill-opacity="0.5"/>
</g>
<g opacity="0.2">
<rect x="389" y="334.5" width="3" height="3" fill="#F0B537" fill-opacity="0.5"/>
<rect x="393" y="334.5" width="4" height="3" fill="#F0B537" fill-opacity="0.5"/>
</g>
<g opacity="0.2">
<rect x="389" y="339.5" width="5" height="3" fill="#F0B537" fill-opacity="0.5"/>
<rect x="395" y="339.5" width="2" height="3" fill="#F0B537" fill-opacity="0.5"/>
</g>
<g opacity="0.2">
<rect x="389" y="344.5" width="6" height="3" fill="#F0B537" fill-opacity="0.5"/>
<rect x="396" y="344.5" width="1" height="3" fill="#F0B537" fill-opacity="0.5"/>
</g>
<g opacity="0.2">
<rect x="389" y="349.5" width="3" height="3" fill="#F0B537" fill-opacity="0.5"/>
<rect x="393" y="349.5" width="4" height="3" fill="#F0B537" fill-opacity="0.5"/>
</g>
<g opacity="0.2">
<rect x="389" y="354.5" width="4" height="3" fill="#F0B537" fill-opacity="0.5"/>
<rect x="394" y="354.5" width="3" height="3" fill="#F0B537" fill-opacity="0.5"/>
</g>
<g opacity="0.2">
<rect x="389" y="359.5" width="3" height="3" fill="#F0B537" fill-opacity="0.5"/>
<rect x="393" y="359.5" width="4" height="3" fill="#F0B537" fill-opacity="0.5"/>
</g>
<g opacity="0.2">
<rect x="389" y="364.5" width="3" height="3" fill="#F0B537" fill-opacity="0.5"/>
<rect x="393" y="364.5" width="4" height="3" fill="#F0B537" fill-opacity="0.5"/>
</g>
<g opacity="0.2">
<rect x="389" y="369.5" width="5" height="3" fill="#F0B537" fill-opacity="0.5"/>
<rect x="395" y="369.5" width="2" height="3" fill="#F0B537" fill-opacity="0.5"/>
</g>
<g filter="url(#filter0_d_24_1668)">
<path d="M17 14C17 8.47714 21.4772 4 27 4H379C384.523 4 389 8.47715 389 14V366C389 371.523 384.523 376 379 376H27C21.4771 376 17 371.523 17 366V14Z" fill="#17130E"/>
<path d="M27 5H379C383.971 5 388 9.02944 388 14V366C388 370.971 383.971 375 379 375H27C22.0294 375 18 370.971 18 366V14C18 9.02943 22.0294 5 27 5Z" stroke="#F0B537" stroke-width="2"/>
</g>
<g filter="url(#filter1_d_24_1668)">
<path d="M12 16.5V53.5" stroke="#F0B537"/>
</g>
<g filter="url(#filter2_d_24_1668)">
<path d="M12 64.5V372" stroke="#F0B537"/>
</g>
<g filter="url(#filter3_d_24_1668)">
<path d="M7 19V56" stroke="#F0B537"/>
</g>
<g filter="url(#filter4_d_24_1668)">
<path d="M387.5 369.5L350 369.5" stroke="#F0B537"/>
</g>
<g filter="url(#filter5_d_24_1668)">
<path d="M389 364.5H376.5" stroke="#F0B537"/>
</g>
<g filter="url(#filter6_d_24_1668)">
<path d="M7 67V375" stroke="#F0B537"/>
</g>
<g filter="url(#filter7_d_24_1668)">
<path d="M45 39.5333C45 36.5464 45 35.0529 45.5813 33.9121C46.0926 32.9085 46.9085 32.0926 47.9121 31.5813C49.0529 31 50.5464 31 53.5333 31H62.7987C64.1032 31 64.7555 31 65.3693 31.1474C65.9133 31.278 66.4336 31.4935 66.9109 31.7859C67.4491 32.1157 67.9104 32.5769 68.8328 33.4994L69.1672 33.834C70.0896 34.7564 70.5509 35.2176 71.0891 35.5474C71.5664 35.8398 72.0867 36.0553 72.6307 36.186C73.2445 36.3333 73.8968 36.3333 75.2013 36.3333H84.4667C87.4536 36.3333 88.9472 36.3333 90.088 36.9146C91.0915 37.4259 91.9075 38.2418 92.4187 39.2454C93 40.3862 93 41.8797 93 44.8667V59.8C93 62.7869 93 64.2805 92.4187 65.4213C91.9075 66.4248 91.0915 67.2408 90.088 67.752C88.9472 68.3333 87.4536 68.3333 84.4667 68.3333H53.5333C50.5464 68.3333 49.0529 68.3333 47.9121 67.752C46.9085 67.2408 46.0926 66.4248 45.5813 65.4213C45 64.2805 45 62.7869 45 59.8V39.5333Z" stroke="#F0B537" stroke-width="5.33333" stroke-linecap="round" stroke-linejoin="round"/>
</g>
<defs>
<filter id="filter0_d_24_1668" x="6.2" y="0.2" width="388.6" height="383.6" filterUnits="userSpaceOnUse" color-interpolation-filters="sRGB">
<feFlood flood-opacity="0" result="BackgroundImageFix"/>
<feColorMatrix in="SourceAlpha" type="matrix" values="0 0 0 0 0 0 0 0 0 0 0 0 0 0 0 0 0 0 127 0" result="hardAlpha"/>
<feOffset dy="2"/>
<feGaussianBlur stdDeviation="2.9"/>
<feColorMatrix type="matrix" values="0 0 0 0 0.941176 0 0 0 0 0.709804 0 0 0 0 0.215686 0 0 0 1 0"/>
<feBlend mode="normal" in2="BackgroundImageFix" result="effect1_dropShadow_24_1668"/>
<feBlend mode="normal" in="SourceGraphic" in2="effect1_dropShadow_24_1668" result="shape"/>
</filter>
<filter id="filter1_d_24_1668" x="5.7" y="12.7" width="12.6" height="48.6" filterUnits="userSpaceOnUse" color-interpolation-filters="sRGB">
<feFlood flood-opacity="0" result="BackgroundImageFix"/>
<feColorMatrix in="SourceAlpha" type="matrix" values="0 0 0 0 0 0 0 0 0 0 0 0 0 0 0 0 0 0 127 0" result="hardAlpha"/>
<feOffset dy="2"/>
<feGaussianBlur stdDeviation="2.9"/>
<feColorMatrix type="matrix" values="0 0 0 0 0.941176 0 0 0 0 0.709804 0 0 0 0 0.215686 0 0 0 1 0"/>
<feBlend mode="normal" in2="BackgroundImageFix" result="effect1_dropShadow_24_1668"/>
<feBlend mode="normal" in="SourceGraphic" in2="effect1_dropShadow_24_1668" result="shape"/>
</filter>
<filter id="filter2_d_24_1668" x="5.7" y="60.7" width="12.6" height="319.1" filterUnits="userSpaceOnUse" color-interpolation-filters="sRGB">
<feFlood flood-opacity="0" result="BackgroundImageFix"/>
<feColorMatrix in="SourceAlpha" type="matrix" values="0 0 0 0 0 0 0 0 0 0 0 0 0 0 0 0 0 0 127 0" result="hardAlpha"/>
<feOffset dy="2"/>
<feGaussianBlur stdDeviation="2.9"/>
<feColorMatrix type="matrix" values="0 0 0 0 0.941176 0 0 0 0 0.709804 0 0 0 0 0.215686 0 0 0 1 0"/>
<feBlend mode="normal" in2="BackgroundImageFix" result="effect1_dropShadow_24_1668"/>
<feBlend mode="normal" in="SourceGraphic" in2="effect1_dropShadow_24_1668" result="shape"/>
</filter>
<filter id="filter3_d_24_1668" x="0.7" y="15.2" width="12.6" height="48.6" filterUnits="userSpaceOnUse" color-interpolation-filters="sRGB">
<feFlood flood-opacity="0" result="BackgroundImageFix"/>
<feColorMatrix in="SourceAlpha" type="matrix" values="0 0 0 0 0 0 0 0 0 0 0 0 0 0 0 0 0 0 127 0" result="hardAlpha"/>
<feOffset dy="2"/>
<feGaussianBlur stdDeviation="2.9"/>
<feColorMatrix type="matrix" values="0 0 0 0 0.941176 0 0 0 0 0.709804 0 0 0 0 0.215686 0 0 0 1 0"/>
<feBlend mode="normal" in2="BackgroundImageFix" result="effect1_dropShadow_24_1668"/>
<feBlend mode="normal" in="SourceGraphic" in2="effect1_dropShadow_24_1668" result="shape"/>
</filter>
<filter id="filter4_d_24_1668" x="344.2" y="365.2" width="49.1" height="12.6" filterUnits="userSpaceOnUse" color-interpolation-filters="sRGB">
<feFlood flood-opacity="0" result="BackgroundImageFix"/>
<feColorMatrix in="SourceAlpha" type="matrix" values="0 0 0 0 0 0 0 0 0 0 0 0 0 0 0 0 0 0 127 0" result="hardAlpha"/>
<feOffset dy="2"/>
<feGaussianBlur stdDeviation="2.9"/>
<feColorMatrix type="matrix" values="0 0 0 0 0.941176 0 0 0 0 0.709804 0 0 0 0 0.215686 0 0 0 1 0"/>
<feBlend mode="normal" in2="BackgroundImageFix" result="effect1_dropShadow_24_1668"/>
<feBlend mode="normal" in="SourceGraphic" in2="effect1_dropShadow_24_1668" result="shape"/>
</filter>
<filter id="filter5_d_24_1668" x="370.7" y="360.2" width="24.1" height="12.6" filterUnits="userSpaceOnUse" color-interpolation-filters="sRGB">
<feFlood flood-opacity="0" result="BackgroundImageFix"/>
<feColorMatrix in="SourceAlpha" type="matrix" values="0 0 0 0 0 0 0 0 0 0 0 0 0 0 0 0 0 0 127 0" result="hardAlpha"/>
<feOffset dy="2"/>
<feGaussianBlur stdDeviation="2.9"/>
<feColorMatrix type="matrix" values="0 0 0 0 0.941176 0 0 0 0 0.709804 0 0 0 0 0.215686 0 0 0 1 0"/>
<feBlend mode="normal" in2="BackgroundImageFix" result="effect1_dropShadow_24_1668"/>
<feBlend mode="normal" in="SourceGraphic" in2="effect1_dropShadow_24_1668" result="shape"/>
</filter>
<filter id="filter6_d_24_1668" x="0.7" y="63.2" width="12.6" height="319.6" filterUnits="userSpaceOnUse" color-interpolation-filters="sRGB">
<feFlood flood-opacity="0" result="BackgroundImageFix"/>
<feColorMatrix in="SourceAlpha" type="matrix" values="0 0 0 0 0 0 0 0 0 0 0 0 0 0 0 0 0 0 127 0" result="hardAlpha"/>
<feOffset dy="2"/>
<feGaussianBlur stdDeviation="2.9"/>
<feColorMatrix type="matrix" values="0 0 0 0 0.941176 0 0 0 0 0.709804 0 0 0 0 0.215686 0 0 0 1 0"/>
<feBlend mode="normal" in2="BackgroundImageFix" result="effect1_dropShadow_24_1668"/>
<feBlend mode="normal" in="SourceGraphic" in2="effect1_dropShadow_24_1668" result="shape"/>
</filter>
<filter id="filter7_d_24_1668" x="28.5" y="5" width="81" height="81" filterUnits="userSpaceOnUse" color-interpolation-filters="sRGB">
<feFlood flood-opacity="0" result="BackgroundImageFix"/>
<feColorMatrix in="SourceAlpha" type="matrix" values="0 0 0 0 0 0 0 0 0 0 0 0 0 0 0 0 0 0 127 0" result="hardAlpha"/>
<feOffset/>
<feGaussianBlur stdDeviation="4.25"/>
<feComposite in2="hardAlpha" operator="out"/>
<feColorMatrix type="matrix" values="0 0 0 0 0.941176 0 0 0 0 0.709804 0 0 0 0 0.215686 0 0 0 1 0"/>
<feBlend mode="normal" in2="BackgroundImageFix" result="effect1_dropShadow_24_1668"/>
<feBlend mode="normal" in="SourceGraphic" in2="effect1_dropShadow_24_1668" result="shape"/>
</filter>
</defs>
</svg>
