<svg width="397" height="385" viewBox="0 0 397 385" fill="none" xmlns="http://www.w3.org/2000/svg">
<g opacity="0.2">
<rect x="389" y="10.5" width="5" height="3" fill="#F0B537" fill-opacity="0.5"/>
<rect x="395" y="10.5" width="2" height="3" fill="#F0B537" fill-opacity="0.5"/>
</g>
<g opacity="0.2">
<rect x="389" y="15.5" width="6" height="3" fill="#F0B537" fill-opacity="0.5"/>
<rect x="396" y="15.5" width="1" height="3" fill="#F0B537" fill-opacity="0.5"/>
</g>
<g opacity="0.2">
<rect x="389" y="20.5" width="3" height="3" fill="#F0B537" fill-opacity="0.5"/>
<rect x="393" y="20.5" width="4" height="3" fill="#F0B537" fill-opacity="0.5"/>
</g>
<g opacity="0.2">
<rect x="389" y="25.5" width="4" height="3" fill="#F0B537" fill-opacity="0.5"/>
<rect x="394" y="25.5" width="3" height="3" fill="#F0B537" fill-opacity="0.5"/>
</g>
<g opacity="0.2">
<rect x="389" y="30.5" width="3" height="3" fill="#F0B537" fill-opacity="0.5"/>
<rect x="393" y="30.5" width="4" height="3" fill="#F0B537" fill-opacity="0.5"/>
</g>
<g opacity="0.2">
<rect x="389" y="35.5" width="3" height="3" fill="#F0B537" fill-opacity="0.5"/>
<rect x="393" y="35.5" width="4" height="3" fill="#F0B537" fill-opacity="0.5"/>
</g>
<g opacity="0.2">
<rect x="389" y="40.5" width="5" height="3" fill="#F0B537" fill-opacity="0.5"/>
<rect x="395" y="40.5" width="2" height="3" fill="#F0B537" fill-opacity="0.5"/>
</g>
<g opacity="0.2">
<rect x="389" y="45.5" width="6" height="3" fill="#F0B537" fill-opacity="0.5"/>
<rect x="396" y="45.5" width="1" height="3" fill="#F0B537" fill-opacity="0.5"/>
</g>
<g opacity="0.2">
<rect x="389" y="50.5" width="3" height="3" fill="#F0B537" fill-opacity="0.5"/>
<rect x="393" y="50.5" width="4" height="3" fill="#F0B537" fill-opacity="0.5"/>
</g>
<g opacity="0.2">
<rect x="389" y="55.5" width="4" height="3" fill="#F0B537" fill-opacity="0.5"/>
<rect x="394" y="55.5" width="3" height="3" fill="#F0B537" fill-opacity="0.5"/>
</g>
<g opacity="0.2">
<rect x="389" y="60.5" width="3" height="3" fill="#F0B537" fill-opacity="0.5"/>
<rect x="393" y="60.5" width="4" height="3" fill="#F0B537" fill-opacity="0.5"/>
</g>
<g opacity="0.2">
<rect x="389" y="65.5" width="3" height="3" fill="#F0B537" fill-opacity="0.5"/>
<rect x="393" y="65.5" width="4" height="3" fill="#F0B537" fill-opacity="0.5"/>
</g>
<g opacity="0.2">
<rect x="389" y="70.5" width="5" height="3" fill="#F0B537" fill-opacity="0.5"/>
<rect x="395" y="70.5" width="2" height="3" fill="#F0B537" fill-opacity="0.5"/>
</g>
<g opacity="0.2">
<rect x="389" y="75.5" width="6" height="3" fill="#F0B537" fill-opacity="0.5"/>
<rect x="396" y="75.5" width="1" height="3" fill="#F0B537" fill-opacity="0.5"/>
</g>
<g opacity="0.2">
<rect x="389" y="80.5" width="3" height="3" fill="#F0B537" fill-opacity="0.5"/>
<rect x="393" y="80.5" width="4" height="3" fill="#F0B537" fill-opacity="0.5"/>
</g>
<g opacity="0.2">
<rect x="389" y="85.5" width="4" height="3" fill="#F0B537" fill-opacity="0.5"/>
<rect x="394" y="85.5" width="3" height="3" fill="#F0B537" fill-opacity="0.5"/>
</g>
<g opacity="0.2">
<rect x="389" y="90.5" width="3" height="3" fill="#F0B537" fill-opacity="0.5"/>
<rect x="393" y="90.5" width="4" height="3" fill="#F0B537" fill-opacity="0.5"/>
</g>
<g opacity="0.2">
<rect x="389" y="95.5" width="3" height="3" fill="#F0B537" fill-opacity="0.5"/>
<rect x="393" y="95.5" width="4" height="3" fill="#F0B537" fill-opacity="0.5"/>
</g>
<g opacity="0.2">
<rect x="389" y="100.5" width="5" height="3" fill="#F0B537" fill-opacity="0.5"/>
<rect x="395" y="100.5" width="2" height="3" fill="#F0B537" fill-opacity="0.5"/>
</g>
<g opacity="0.2">
<rect x="389" y="105.5" width="6" height="3" fill="#F0B537" fill-opacity="0.5"/>
<rect x="396" y="105.5" width="1" height="3" fill="#F0B537" fill-opacity="0.5"/>
</g>
<g opacity="0.2">
<rect x="389" y="110.5" width="3" height="3" fill="#F0B537" fill-opacity="0.5"/>
<rect x="393" y="110.5" width="4" height="3" fill="#F0B537" fill-opacity="0.5"/>
</g>
<g opacity="0.2">
<rect x="389" y="115.5" width="4" height="3" fill="#F0B537" fill-opacity="0.5"/>
<rect x="394" y="115.5" width="3" height="3" fill="#F0B537" fill-opacity="0.5"/>
</g>
<g opacity="0.2">
<rect x="389" y="120.5" width="3" height="3" fill="#F0B537" fill-opacity="0.5"/>
<rect x="393" y="120.5" width="4" height="3" fill="#F0B537" fill-opacity="0.5"/>
</g>
<g opacity="0.2">
<rect x="389" y="125.5" width="3" height="3" fill="#F0B537" fill-opacity="0.5"/>
<rect x="393" y="125.5" width="4" height="3" fill="#F0B537" fill-opacity="0.5"/>
</g>
<g opacity="0.2">
<rect x="389" y="130.5" width="5" height="3" fill="#F0B537" fill-opacity="0.5"/>
<rect x="395" y="130.5" width="2" height="3" fill="#F0B537" fill-opacity="0.5"/>
</g>
<g opacity="0.2">
<rect x="389" y="135.5" width="6" height="3" fill="#F0B537" fill-opacity="0.5"/>
<rect x="396" y="135.5" width="1" height="3" fill="#F0B537" fill-opacity="0.5"/>
</g>
<g opacity="0.2">
<rect x="389" y="140.5" width="3" height="3" fill="#F0B537" fill-opacity="0.5"/>
<rect x="393" y="140.5" width="4" height="3" fill="#F0B537" fill-opacity="0.5"/>
</g>
<g opacity="0.2">
<rect x="389" y="145.5" width="4" height="3" fill="#F0B537" fill-opacity="0.5"/>
<rect x="394" y="145.5" width="3" height="3" fill="#F0B537" fill-opacity="0.5"/>
</g>
<g opacity="0.2">
<rect x="389" y="150.5" width="3" height="3" fill="#F0B537" fill-opacity="0.5"/>
<rect x="393" y="150.5" width="4" height="3" fill="#F0B537" fill-opacity="0.5"/>
</g>
<g opacity="0.2">
<rect x="389" y="155.5" width="3" height="3" fill="#F0B537" fill-opacity="0.5"/>
<rect x="393" y="155.5" width="4" height="3" fill="#F0B537" fill-opacity="0.5"/>
</g>
<g opacity="0.2">
<rect x="389" y="160.5" width="5" height="3" fill="#F0B537" fill-opacity="0.5"/>
<rect x="395" y="160.5" width="2" height="3" fill="#F0B537" fill-opacity="0.5"/>
</g>
<g opacity="0.2">
<rect x="389" y="165.5" width="6" height="3" fill="#F0B537" fill-opacity="0.5"/>
<rect x="396" y="165.5" width="1" height="3" fill="#F0B537" fill-opacity="0.5"/>
</g>
<g opacity="0.2">
<rect x="389" y="170.5" width="3" height="3" fill="#F0B537" fill-opacity="0.5"/>
<rect x="393" y="170.5" width="4" height="3" fill="#F0B537" fill-opacity="0.5"/>
</g>
<g opacity="0.2">
<rect x="389" y="175.5" width="4" height="3" fill="#F0B537" fill-opacity="0.5"/>
<rect x="394" y="175.5" width="3" height="3" fill="#F0B537" fill-opacity="0.5"/>
</g>
<g opacity="0.2">
<rect x="389" y="180.5" width="3" height="3" fill="#F0B537" fill-opacity="0.5"/>
<rect x="393" y="180.5" width="4" height="3" fill="#F0B537" fill-opacity="0.5"/>
</g>
<g opacity="0.2">
<rect x="389" y="185.5" width="3" height="3" fill="#F0B537" fill-opacity="0.5"/>
<rect x="393" y="185.5" width="4" height="3" fill="#F0B537" fill-opacity="0.5"/>
</g>
<g opacity="0.2">
<rect x="389" y="190.5" width="5" height="3" fill="#F0B537" fill-opacity="0.5"/>
<rect x="395" y="190.5" width="2" height="3" fill="#F0B537" fill-opacity="0.5"/>
</g>
<g opacity="0.2">
<rect x="389" y="195.5" width="6" height="3" fill="#F0B537" fill-opacity="0.5"/>
<rect x="396" y="195.5" width="1" height="3" fill="#F0B537" fill-opacity="0.5"/>
</g>
<g opacity="0.2">
<rect x="389" y="200.5" width="3" height="3" fill="#F0B537" fill-opacity="0.5"/>
<rect x="393" y="200.5" width="4" height="3" fill="#F0B537" fill-opacity="0.5"/>
</g>
<g opacity="0.2">
<rect x="389" y="205.5" width="4" height="3" fill="#F0B537" fill-opacity="0.5"/>
<rect x="394" y="205.5" width="3" height="3" fill="#F0B537" fill-opacity="0.5"/>
</g>
<g opacity="0.2">
<rect x="389" y="210.5" width="3" height="3" fill="#F0B537" fill-opacity="0.5"/>
<rect x="393" y="210.5" width="4" height="3" fill="#F0B537" fill-opacity="0.5"/>
</g>
<g opacity="0.2">
<rect x="389" y="215.5" width="3" height="3" fill="#F0B537" fill-opacity="0.5"/>
<rect x="393" y="215.5" width="4" height="3" fill="#F0B537" fill-opacity="0.5"/>
</g>
<g opacity="0.2">
<rect x="389" y="220.5" width="5" height="3" fill="#F0B537" fill-opacity="0.5"/>
<rect x="395" y="220.5" width="2" height="3" fill="#F0B537" fill-opacity="0.5"/>
</g>
<g opacity="0.2">
<rect x="389" y="225.5" width="6" height="3" fill="#F0B537" fill-opacity="0.5"/>
<rect x="396" y="225.5" width="1" height="3" fill="#F0B537" fill-opacity="0.5"/>
</g>
<g opacity="0.2">
<rect x="389" y="230.5" width="3" height="3" fill="#F0B537" fill-opacity="0.5"/>
<rect x="393" y="230.5" width="4" height="3" fill="#F0B537" fill-opacity="0.5"/>
</g>
<g opacity="0.2">
<rect x="389" y="235.5" width="4" height="3" fill="#F0B537" fill-opacity="0.5"/>
<rect x="394" y="235.5" width="3" height="3" fill="#F0B537" fill-opacity="0.5"/>
</g>
<g opacity="0.2">
<rect x="389" y="240.5" width="3" height="3" fill="#F0B537" fill-opacity="0.5"/>
<rect x="393" y="240.5" width="4" height="3" fill="#F0B537" fill-opacity="0.5"/>
</g>
<g opacity="0.2">
<rect x="389" y="245.5" width="3" height="3" fill="#F0B537" fill-opacity="0.5"/>
<rect x="393" y="245.5" width="4" height="3" fill="#F0B537" fill-opacity="0.5"/>
</g>
<g opacity="0.2">
<rect x="389" y="250.5" width="5" height="3" fill="#F0B537" fill-opacity="0.5"/>
<rect x="395" y="250.5" width="2" height="3" fill="#F0B537" fill-opacity="0.5"/>
</g>
<g opacity="0.2">
<rect x="389" y="255.5" width="6" height="3" fill="#F0B537" fill-opacity="0.5"/>
<rect x="396" y="255.5" width="1" height="3" fill="#F0B537" fill-opacity="0.5"/>
</g>
<g opacity="0.2">
<rect x="389" y="260.5" width="3" height="3" fill="#F0B537" fill-opacity="0.5"/>
<rect x="393" y="260.5" width="4" height="3" fill="#F0B537" fill-opacity="0.5"/>
</g>
<g opacity="0.2">
<rect x="389" y="265.5" width="4" height="3" fill="#F0B537" fill-opacity="0.5"/>
<rect x="394" y="265.5" width="3" height="3" fill="#F0B537" fill-opacity="0.5"/>
</g>
<g opacity="0.2">
<rect x="389" y="270.5" width="3" height="3" fill="#F0B537" fill-opacity="0.5"/>
<rect x="393" y="270.5" width="4" height="3" fill="#F0B537" fill-opacity="0.5"/>
</g>
<g opacity="0.2">
<rect x="389" y="275.5" width="3" height="3" fill="#F0B537" fill-opacity="0.5"/>
<rect x="393" y="275.5" width="4" height="3" fill="#F0B537" fill-opacity="0.5"/>
</g>
<g opacity="0.2">
<rect x="389" y="280.5" width="5" height="3" fill="#F0B537" fill-opacity="0.5"/>
<rect x="395" y="280.5" width="2" height="3" fill="#F0B537" fill-opacity="0.5"/>
</g>
<g opacity="0.2">
<rect x="389" y="285.5" width="6" height="3" fill="#F0B537" fill-opacity="0.5"/>
<rect x="396" y="285.5" width="1" height="3" fill="#F0B537" fill-opacity="0.5"/>
</g>
<g opacity="0.2">
<rect x="389" y="290.5" width="3" height="3" fill="#F0B537" fill-opacity="0.5"/>
<rect x="393" y="290.5" width="4" height="3" fill="#F0B537" fill-opacity="0.5"/>
</g>
<g opacity="0.2">
<rect x="389" y="295.5" width="4" height="3" fill="#F0B537" fill-opacity="0.5"/>
<rect x="394" y="295.5" width="3" height="3" fill="#F0B537" fill-opacity="0.5"/>
</g>
<g opacity="0.2">
<rect x="389" y="300.5" width="3" height="3" fill="#F0B537" fill-opacity="0.5"/>
<rect x="393" y="300.5" width="4" height="3" fill="#F0B537" fill-opacity="0.5"/>
</g>
<g opacity="0.2">
<rect x="389" y="305.5" width="3" height="3" fill="#F0B537" fill-opacity="0.5"/>
<rect x="393" y="305.5" width="4" height="3" fill="#F0B537" fill-opacity="0.5"/>
</g>
<g opacity="0.2">
<rect x="389" y="310.5" width="5" height="3" fill="#F0B537" fill-opacity="0.5"/>
<rect x="395" y="310.5" width="2" height="3" fill="#F0B537" fill-opacity="0.5"/>
</g>
<g opacity="0.2">
<rect x="389" y="315.5" width="6" height="3" fill="#F0B537" fill-opacity="0.5"/>
<rect x="396" y="315.5" width="1" height="3" fill="#F0B537" fill-opacity="0.5"/>
</g>
<g opacity="0.2">
<rect x="389" y="320.5" width="3" height="3" fill="#F0B537" fill-opacity="0.5"/>
<rect x="393" y="320.5" width="4" height="3" fill="#F0B537" fill-opacity="0.5"/>
</g>
<g opacity="0.2">
<rect x="389" y="325.5" width="4" height="3" fill="#F0B537" fill-opacity="0.5"/>
<rect x="394" y="325.5" width="3" height="3" fill="#F0B537" fill-opacity="0.5"/>
</g>
<g opacity="0.2">
<rect x="389" y="330.5" width="3" height="3" fill="#F0B537" fill-opacity="0.5"/>
<rect x="393" y="330.5" width="4" height="3" fill="#F0B537" fill-opacity="0.5"/>
</g>
<g opacity="0.2">
<rect x="389" y="335.5" width="3" height="3" fill="#F0B537" fill-opacity="0.5"/>
<rect x="393" y="335.5" width="4" height="3" fill="#F0B537" fill-opacity="0.5"/>
</g>
<g opacity="0.2">
<rect x="389" y="340.5" width="5" height="3" fill="#F0B537" fill-opacity="0.5"/>
<rect x="395" y="340.5" width="2" height="3" fill="#F0B537" fill-opacity="0.5"/>
</g>
<g opacity="0.2">
<rect x="389" y="345.5" width="6" height="3" fill="#F0B537" fill-opacity="0.5"/>
<rect x="396" y="345.5" width="1" height="3" fill="#F0B537" fill-opacity="0.5"/>
</g>
<g opacity="0.2">
<rect x="389" y="350.5" width="3" height="3" fill="#F0B537" fill-opacity="0.5"/>
<rect x="393" y="350.5" width="4" height="3" fill="#F0B537" fill-opacity="0.5"/>
</g>
<g opacity="0.2">
<rect x="389" y="355.5" width="4" height="3" fill="#F0B537" fill-opacity="0.5"/>
<rect x="394" y="355.5" width="3" height="3" fill="#F0B537" fill-opacity="0.5"/>
</g>
<g opacity="0.2">
<rect x="389" y="360.5" width="3" height="3" fill="#F0B537" fill-opacity="0.5"/>
<rect x="393" y="360.5" width="4" height="3" fill="#F0B537" fill-opacity="0.5"/>
</g>
<g opacity="0.2">
<rect x="389" y="365.5" width="3" height="3" fill="#F0B537" fill-opacity="0.5"/>
<rect x="393" y="365.5" width="4" height="3" fill="#F0B537" fill-opacity="0.5"/>
</g>
<g opacity="0.2">
<rect x="389" y="370.5" width="5" height="3" fill="#F0B537" fill-opacity="0.5"/>
<rect x="395" y="370.5" width="2" height="3" fill="#F0B537" fill-opacity="0.5"/>
</g>
<g filter="url(#filter0_d_24_1197)">
<path d="M17 15C17 9.47714 21.4772 5 27 5H379C384.523 5 389 9.47715 389 15V367C389 372.523 384.523 377 379 377H27C21.4771 377 17 372.523 17 367V15Z" fill="#17130E"/>
<path d="M18 15C18 10.0294 22.0294 6 27 6H379C383.971 6 388 10.0294 388 15V367C388 371.971 383.971 376 379 376H27C22.0294 376 18 371.971 18 367V15Z" stroke="#F0B537" stroke-width="2"/>
</g>
<g filter="url(#filter1_d_24_1197)">
<path d="M12 17.5V54.5" stroke="#F0B537"/>
</g>
<g filter="url(#filter2_d_24_1197)">
<path d="M12 65.5V373" stroke="#F0B537"/>
</g>
<g filter="url(#filter3_d_24_1197)">
<path d="M7 20V57" stroke="#F0B537"/>
</g>
<g filter="url(#filter4_d_24_1197)">
<path d="M387.5 370.5L350 370.5" stroke="#F0B537"/>
</g>
<g filter="url(#filter5_d_24_1197)">
<path d="M389 365.5H376.5" stroke="#F0B537"/>
</g>
<g filter="url(#filter6_d_24_1197)">
<path d="M7 68V376" stroke="#F0B537"/>
</g>
<g filter="url(#filter7_d_24_1197)">
<path d="M308 74V5H339V74L323.5 67.7L308 74Z" fill="#F75049" fill-opacity="0.85" shape-rendering="crispEdges"/>
</g>
<g filter="url(#filter8_d_24_1197)">
<path d="M45 40.5333C45 37.5464 45 36.0529 45.5813 34.9121C46.0926 33.9085 46.9085 33.0926 47.9121 32.5813C49.0529 32 50.5464 32 53.5333 32H62.7987C64.1032 32 64.7555 32 65.3693 32.1474C65.9133 32.278 66.4336 32.4935 66.9109 32.7859C67.4491 33.1157 67.9104 33.5769 68.8328 34.4994L69.1672 34.834C70.0896 35.7564 70.5509 36.2176 71.0891 36.5474C71.5664 36.8398 72.0867 37.0553 72.6307 37.186C73.2445 37.3333 73.8968 37.3333 75.2013 37.3333H84.4667C87.4536 37.3333 88.9472 37.3333 90.088 37.9146C91.0915 38.4259 91.9075 39.2418 92.4187 40.2454C93 41.3862 93 42.8797 93 45.8667V60.8C93 63.7869 93 65.2805 92.4187 66.4213C91.9075 67.4248 91.0915 68.2408 90.088 68.752C88.9472 69.3333 87.4536 69.3333 84.4667 69.3333H53.5333C50.5464 69.3333 49.0529 69.3333 47.9121 68.752C46.9085 68.2408 46.0926 67.4248 45.5813 66.4213C45 65.2805 45 63.7869 45 60.8V40.5333Z" stroke="#F0B537" stroke-width="5.33333" stroke-linecap="round" stroke-linejoin="round"/>
</g>
<defs>
<filter id="filter0_d_24_1197" x="11.2" y="1.2" width="383.6" height="383.6" filterUnits="userSpaceOnUse" color-interpolation-filters="sRGB">
<feFlood flood-opacity="0" result="BackgroundImageFix"/>
<feColorMatrix in="SourceAlpha" type="matrix" values="0 0 0 0 0 0 0 0 0 0 0 0 0 0 0 0 0 0 127 0" result="hardAlpha"/>
<feOffset dy="2"/>
<feGaussianBlur stdDeviation="2.9"/>
<feColorMatrix type="matrix" values="0 0 0 0 0.941176 0 0 0 0 0.709804 0 0 0 0 0.215686 0 0 0 1 0"/>
<feBlend mode="normal" in2="BackgroundImageFix" result="effect1_dropShadow_24_1197"/>
<feBlend mode="normal" in="SourceGraphic" in2="effect1_dropShadow_24_1197" result="shape"/>
</filter>
<filter id="filter1_d_24_1197" x="5.7" y="13.7" width="12.6" height="48.6" filterUnits="userSpaceOnUse" color-interpolation-filters="sRGB">
<feFlood flood-opacity="0" result="BackgroundImageFix"/>
<feColorMatrix in="SourceAlpha" type="matrix" values="0 0 0 0 0 0 0 0 0 0 0 0 0 0 0 0 0 0 127 0" result="hardAlpha"/>
<feOffset dy="2"/>
<feGaussianBlur stdDeviation="2.9"/>
<feColorMatrix type="matrix" values="0 0 0 0 0.941176 0 0 0 0 0.709804 0 0 0 0 0.215686 0 0 0 1 0"/>
<feBlend mode="normal" in2="BackgroundImageFix" result="effect1_dropShadow_24_1197"/>
<feBlend mode="normal" in="SourceGraphic" in2="effect1_dropShadow_24_1197" result="shape"/>
</filter>
<filter id="filter2_d_24_1197" x="5.7" y="61.7" width="12.6" height="319.1" filterUnits="userSpaceOnUse" color-interpolation-filters="sRGB">
<feFlood flood-opacity="0" result="BackgroundImageFix"/>
<feColorMatrix in="SourceAlpha" type="matrix" values="0 0 0 0 0 0 0 0 0 0 0 0 0 0 0 0 0 0 127 0" result="hardAlpha"/>
<feOffset dy="2"/>
<feGaussianBlur stdDeviation="2.9"/>
<feColorMatrix type="matrix" values="0 0 0 0 0.941176 0 0 0 0 0.709804 0 0 0 0 0.215686 0 0 0 1 0"/>
<feBlend mode="normal" in2="BackgroundImageFix" result="effect1_dropShadow_24_1197"/>
<feBlend mode="normal" in="SourceGraphic" in2="effect1_dropShadow_24_1197" result="shape"/>
</filter>
<filter id="filter3_d_24_1197" x="0.7" y="16.2" width="12.6" height="48.6" filterUnits="userSpaceOnUse" color-interpolation-filters="sRGB">
<feFlood flood-opacity="0" result="BackgroundImageFix"/>
<feColorMatrix in="SourceAlpha" type="matrix" values="0 0 0 0 0 0 0 0 0 0 0 0 0 0 0 0 0 0 127 0" result="hardAlpha"/>
<feOffset dy="2"/>
<feGaussianBlur stdDeviation="2.9"/>
<feColorMatrix type="matrix" values="0 0 0 0 0.941176 0 0 0 0 0.709804 0 0 0 0 0.215686 0 0 0 1 0"/>
<feBlend mode="normal" in2="BackgroundImageFix" result="effect1_dropShadow_24_1197"/>
<feBlend mode="normal" in="SourceGraphic" in2="effect1_dropShadow_24_1197" result="shape"/>
</filter>
<filter id="filter4_d_24_1197" x="344.2" y="366.2" width="49.1" height="12.6" filterUnits="userSpaceOnUse" color-interpolation-filters="sRGB">
<feFlood flood-opacity="0" result="BackgroundImageFix"/>
<feColorMatrix in="SourceAlpha" type="matrix" values="0 0 0 0 0 0 0 0 0 0 0 0 0 0 0 0 0 0 127 0" result="hardAlpha"/>
<feOffset dy="2"/>
<feGaussianBlur stdDeviation="2.9"/>
<feColorMatrix type="matrix" values="0 0 0 0 0.941176 0 0 0 0 0.709804 0 0 0 0 0.215686 0 0 0 1 0"/>
<feBlend mode="normal" in2="BackgroundImageFix" result="effect1_dropShadow_24_1197"/>
<feBlend mode="normal" in="SourceGraphic" in2="effect1_dropShadow_24_1197" result="shape"/>
</filter>
<filter id="filter5_d_24_1197" x="370.7" y="361.2" width="24.1" height="12.6" filterUnits="userSpaceOnUse" color-interpolation-filters="sRGB">
<feFlood flood-opacity="0" result="BackgroundImageFix"/>
<feColorMatrix in="SourceAlpha" type="matrix" values="0 0 0 0 0 0 0 0 0 0 0 0 0 0 0 0 0 0 127 0" result="hardAlpha"/>
<feOffset dy="2"/>
<feGaussianBlur stdDeviation="2.9"/>
<feColorMatrix type="matrix" values="0 0 0 0 0.941176 0 0 0 0 0.709804 0 0 0 0 0.215686 0 0 0 1 0"/>
<feBlend mode="normal" in2="BackgroundImageFix" result="effect1_dropShadow_24_1197"/>
<feBlend mode="normal" in="SourceGraphic" in2="effect1_dropShadow_24_1197" result="shape"/>
</filter>
<filter id="filter6_d_24_1197" x="0.7" y="64.2" width="12.6" height="319.6" filterUnits="userSpaceOnUse" color-interpolation-filters="sRGB">
<feFlood flood-opacity="0" result="BackgroundImageFix"/>
<feColorMatrix in="SourceAlpha" type="matrix" values="0 0 0 0 0 0 0 0 0 0 0 0 0 0 0 0 0 0 127 0" result="hardAlpha"/>
<feOffset dy="2"/>
<feGaussianBlur stdDeviation="2.9"/>
<feColorMatrix type="matrix" values="0 0 0 0 0.941176 0 0 0 0 0.709804 0 0 0 0 0.215686 0 0 0 1 0"/>
<feBlend mode="normal" in2="BackgroundImageFix" result="effect1_dropShadow_24_1197"/>
<feBlend mode="normal" in="SourceGraphic" in2="effect1_dropShadow_24_1197" result="shape"/>
</filter>
<filter id="filter7_d_24_1197" x="303.3" y="0.3" width="40.4" height="78.4" filterUnits="userSpaceOnUse" color-interpolation-filters="sRGB">
<feFlood flood-opacity="0" result="BackgroundImageFix"/>
<feColorMatrix in="SourceAlpha" type="matrix" values="0 0 0 0 0 0 0 0 0 0 0 0 0 0 0 0 0 0 127 0" result="hardAlpha"/>
<feOffset/>
<feGaussianBlur stdDeviation="2.35"/>
<feComposite in2="hardAlpha" operator="out"/>
<feColorMatrix type="matrix" values="0 0 0 0 0.968627 0 0 0 0 0.313726 0 0 0 0 0.286275 0 0 0 0.75 0"/>
<feBlend mode="normal" in2="BackgroundImageFix" result="effect1_dropShadow_24_1197"/>
<feBlend mode="normal" in="SourceGraphic" in2="effect1_dropShadow_24_1197" result="shape"/>
</filter>
<filter id="filter8_d_24_1197" x="28.5" y="6" width="81" height="81" filterUnits="userSpaceOnUse" color-interpolation-filters="sRGB">
<feFlood flood-opacity="0" result="BackgroundImageFix"/>
<feColorMatrix in="SourceAlpha" type="matrix" values="0 0 0 0 0 0 0 0 0 0 0 0 0 0 0 0 0 0 127 0" result="hardAlpha"/>
<feOffset/>
<feGaussianBlur stdDeviation="4.25"/>
<feComposite in2="hardAlpha" operator="out"/>
<feColorMatrix type="matrix" values="0 0 0 0 0.941176 0 0 0 0 0.709804 0 0 0 0 0.215686 0 0 0 1 0"/>
<feBlend mode="normal" in2="BackgroundImageFix" result="effect1_dropShadow_24_1197"/>
<feBlend mode="normal" in="SourceGraphic" in2="effect1_dropShadow_24_1197" result="shape"/>
</filter>
</defs>
</svg>
