<svg width="795" height="442" viewBox="0 0 795 442" fill="none" xmlns="http://www.w3.org/2000/svg">
<g clip-path="url(#clip0_7_5100)">
<path d="M41.5056 327.016L40.4676 327.694C40.4023 327.737 40.3189 327.74 40.2477 327.702L39.234 327.14C39.0684 327.046 38.872 327.202 38.9269 327.384L39.252 328.496C39.2762 328.572 39.2517 328.654 39.1953 328.709L38.3027 329.569C38.1699 329.698 38.2552 329.924 38.4402 329.935L39.6769 329.994C39.757 329.998 39.8249 330.043 39.8596 330.115L40.3554 331.185C40.4347 331.353 40.6794 331.348 40.7471 331.172L41.1749 330.057C41.2032 329.985 41.2668 329.934 41.3436 329.923L42.5256 329.754C42.7123 329.727 42.774 329.493 42.6262 329.375L41.6961 328.651C41.6338 328.601 41.6046 328.525 41.6186 328.446L41.8367 327.227C41.8646 327.047 41.6605 326.915 41.5056 327.016Z" fill="white" stroke="white" stroke-width="0.000639995"/>
</g>
<g clip-path="url(#clip1_7_5100)">
<path d="M351.327 246.344L350.289 247.023C350.224 247.066 350.141 247.069 350.07 247.031L349.056 246.468C348.89 246.374 348.694 246.53 348.749 246.713L349.074 247.824C349.098 247.9 349.074 247.983 349.017 248.037L348.125 248.898C347.992 249.026 348.077 249.252 348.262 249.263L349.499 249.322C349.579 249.326 349.647 249.371 349.681 249.443L350.177 250.514C350.256 250.681 350.501 250.676 350.569 250.5L350.997 249.385C351.025 249.313 351.089 249.262 351.165 249.251L352.347 249.082C352.534 249.055 352.596 248.821 352.448 248.703L351.518 247.979C351.456 247.93 351.426 247.853 351.44 247.774L351.658 246.555C351.686 246.375 351.482 246.244 351.327 246.344Z" fill="white" stroke="white" stroke-width="0.000639995"/>
</g>
<g clip-path="url(#clip2_7_5100)">
<path d="M112.497 330.849L110.426 331.938C110.296 332.008 110.139 331.999 110.012 331.914L108.208 330.677C107.914 330.47 107.517 330.729 107.587 331.082L108 333.228C108.032 333.374 107.971 333.525 107.855 333.617L106.025 335.075C105.753 335.292 105.873 335.732 106.218 335.786L108.531 336.117C108.681 336.139 108.8 336.236 108.853 336.377L109.593 338.476C109.712 338.805 110.173 338.839 110.332 338.521L111.334 336.503C111.4 336.372 111.529 336.288 111.675 336.281L113.925 336.174C114.281 336.157 114.439 335.728 114.182 335.481L112.564 333.955C112.455 333.85 112.414 333.701 112.455 333.556L113.082 331.305C113.166 330.971 112.806 330.688 112.497 330.849Z" fill="white" stroke="white" stroke-width="0.000639995"/>
</g>
<g clip-path="url(#clip3_7_5100)">
<path d="M201.48 266.938L199.273 267.714C199.134 267.763 198.98 267.732 198.867 267.63L197.261 266.143C197 265.896 196.57 266.095 196.589 266.454L196.685 268.637C196.695 268.787 196.613 268.927 196.486 269.001L194.463 270.177C194.162 270.353 194.216 270.806 194.551 270.909L196.791 271.573C196.936 271.616 197.04 271.73 197.071 271.877L197.499 274.062C197.569 274.404 198.019 274.505 198.223 274.213L199.508 272.362C199.592 272.242 199.731 272.178 199.877 272.191L202.119 272.413C202.473 272.448 202.692 272.046 202.474 271.765L201.095 270.019C201.003 269.9 200.984 269.747 201.045 269.609L201.992 267.473C202.124 267.155 201.809 266.822 201.48 266.938Z" fill="white" stroke="white" stroke-width="0.000639995"/>
</g>
<g clip-path="url(#clip4_7_5100)">
<path d="M474.025 203.762L471.784 203.09C471.642 203.048 471.536 202.932 471.505 202.783L471.082 200.636C471.016 200.283 470.552 200.19 470.356 200.491L469.148 202.313C469.068 202.44 468.919 202.505 468.773 202.49L466.445 202.25C466.098 202.215 465.876 202.613 466.085 202.893L467.505 204.748C467.597 204.869 467.614 205.022 467.553 205.159L466.612 207.177C466.467 207.495 466.772 207.842 467.109 207.725L469.237 206.986C469.376 206.938 469.526 206.968 469.636 207.065L471.318 208.565C471.583 208.801 471.997 208.605 471.986 208.249L471.899 206.026C471.895 205.876 471.969 205.741 472.1 205.665L474.123 204.496C474.418 204.317 474.359 203.863 474.025 203.762Z" fill="white" stroke="white" stroke-width="0.000639995"/>
</g>
<g clip-path="url(#clip5_7_5100)">
<path d="M578.012 216.477L575.77 215.805C575.629 215.763 575.523 215.647 575.491 215.498L575.069 213.351C575.003 212.998 574.539 212.905 574.342 213.206L573.135 215.027C573.055 215.154 572.906 215.22 572.759 215.204L570.432 214.965C570.085 214.929 569.863 215.327 570.072 215.607L571.492 217.463C571.584 217.583 571.601 217.736 571.539 217.874L570.599 219.891C570.454 220.21 570.759 220.556 571.096 220.44L573.224 219.7C573.362 219.653 573.513 219.683 573.623 219.78L575.304 221.279C575.57 221.516 575.984 221.32 575.973 220.963L575.886 218.741C575.882 218.59 575.956 218.456 576.087 218.38L578.11 217.211C578.405 217.032 578.345 216.577 578.012 216.477Z" fill="white" stroke="white" stroke-width="0.000639995"/>
</g>
<g clip-path="url(#clip6_7_5100)">
<path d="M741.012 41.4767L738.77 40.805C738.629 40.7632 738.523 40.6467 738.491 40.4975L738.069 38.351C738.003 37.9976 737.539 37.9049 737.342 38.2061L736.135 40.0274C736.055 40.1544 735.906 40.22 735.759 40.2043L733.432 39.9646C733.085 39.9294 732.863 40.3275 733.072 40.6075L734.492 42.4629C734.584 42.5833 734.601 42.7364 734.539 42.8739L733.599 44.8914C733.454 45.2096 733.759 45.5563 734.096 45.4397L736.224 44.7003C736.362 44.6532 736.513 44.6832 736.623 44.78L738.304 46.2793C738.57 46.5161 738.984 46.3196 738.973 45.9635L738.886 43.741C738.882 43.5904 738.956 43.4556 739.087 43.3796L741.11 42.211C741.405 42.0315 741.345 41.5773 741.012 41.4767Z" fill="white" stroke="white" stroke-width="0.000639995"/>
</g>
<g clip-path="url(#clip7_7_5100)">
<path d="M620.012 113.477L617.77 112.805C617.629 112.763 617.523 112.647 617.491 112.498L617.069 110.351C617.003 109.998 616.539 109.905 616.342 110.206L615.135 112.027C615.055 112.154 614.906 112.22 614.759 112.204L612.432 111.965C612.085 111.929 611.863 112.327 612.072 112.607L613.492 114.463C613.584 114.583 613.601 114.736 613.539 114.874L612.599 116.891C612.454 117.21 612.759 117.556 613.096 117.44L615.224 116.7C615.362 116.653 615.513 116.683 615.623 116.78L617.304 118.279C617.57 118.516 617.984 118.32 617.973 117.963L617.886 115.741C617.882 115.59 617.956 115.456 618.087 115.38L620.11 114.211C620.405 114.032 620.345 113.577 620.012 113.477Z" fill="white" stroke="white" stroke-width="0.000639995"/>
</g>
<g clip-path="url(#clip8_7_5100)">
<path d="M529.018 149.585L527.817 149.225C527.741 149.202 527.684 149.14 527.668 149.06L527.441 147.91C527.406 147.72 527.157 147.67 527.052 147.832L526.405 148.808C526.362 148.876 526.282 148.911 526.203 148.903L524.956 148.774C524.77 148.756 524.651 148.969 524.763 149.119L525.524 150.113C525.573 150.178 525.582 150.26 525.549 150.334L525.046 151.415C524.968 151.586 525.131 151.771 525.312 151.709L526.452 151.313C526.527 151.287 526.607 151.303 526.666 151.355L527.567 152.159C527.71 152.286 527.932 152.18 527.926 151.99L527.879 150.798C527.877 150.718 527.917 150.645 527.987 150.605L529.071 149.978C529.229 149.882 529.197 149.639 529.018 149.585Z" fill="white" stroke="white" stroke-width="0.000639995"/>
</g>
<g clip-path="url(#clip9_7_5100)">
<path d="M765.83 88.3994L764.629 88.0394C764.553 88.0169 764.496 87.9545 764.479 87.8746L764.253 86.7241C764.218 86.5347 763.968 86.485 763.863 86.6464L763.216 87.6226C763.173 87.6907 763.094 87.7258 763.015 87.7174L761.768 87.5889C761.582 87.5701 761.462 87.7834 761.575 87.9335L762.336 88.9279C762.385 88.9925 762.394 89.0745 762.361 89.1482L761.857 90.2296C761.779 90.4001 761.943 90.5859 762.123 90.5234L763.264 90.1271C763.338 90.1019 763.419 90.1179 763.478 90.1698L764.379 90.9734C764.521 91.1003 764.743 90.995 764.737 90.8041L764.691 89.6129C764.688 89.5323 764.728 89.46 764.798 89.4193L765.883 88.7929C766.041 88.6967 766.009 88.4533 765.83 88.3994Z" fill="white" stroke="white" stroke-width="0.000639995"/>
</g>
<g clip-path="url(#clip10_7_5100)">
<path d="M793.83 36.3993L792.629 36.0393C792.553 36.0169 792.496 35.9545 792.479 35.8745L792.253 34.7241C792.218 34.5347 791.968 34.485 791.863 34.6464L791.216 35.6226C791.173 35.6906 791.094 35.7258 791.015 35.7174L789.768 35.5889C789.582 35.5701 789.462 35.7834 789.575 35.9335L790.336 36.9279C790.385 36.9924 790.394 37.0745 790.361 37.1482L789.857 38.2295C789.779 38.4001 789.943 38.5859 790.123 38.5234L791.264 38.1271C791.338 38.1018 791.419 38.1179 791.478 38.1698L792.379 38.9734C792.521 39.1003 792.743 38.995 792.737 38.8041L792.691 37.6129C792.688 37.5322 792.728 37.4599 792.798 37.4192L793.883 36.7929C794.041 36.6967 794.009 36.4533 793.83 36.3993Z" fill="white" stroke="white" stroke-width="0.000639995"/>
</g>
<g clip-path="url(#clip11_7_5100)">
<path d="M760.83 2.39935L759.629 2.03933C759.553 2.01692 759.496 1.9545 759.479 1.87454L759.253 0.724076C759.218 0.53467 758.968 0.484972 758.863 0.646384L758.216 1.62258C758.173 1.69065 758.094 1.72577 758.015 1.71739L756.768 1.5889C756.582 1.57005 756.462 1.78338 756.575 1.93347L757.336 2.92792C757.385 2.99244 757.394 3.07452 757.361 3.1482L756.857 4.22952C756.779 4.40008 756.943 4.58588 757.123 4.52338L758.264 4.12711C758.338 4.10182 758.419 4.11792 758.478 4.1698L759.379 4.97341C759.521 5.10029 759.743 4.99498 759.737 4.80411L759.691 3.61291C759.688 3.53223 759.728 3.45995 759.798 3.41922L760.883 2.7929C761.041 2.69671 761.009 2.45328 760.83 2.39935Z" fill="white" stroke="white" stroke-width="0.000639995"/>
</g>
<g clip-path="url(#clip12_7_5100)">
<path d="M487.382 132.651L486.181 132.291C486.105 132.269 486.048 132.207 486.032 132.127L485.805 130.976C485.77 130.787 485.521 130.737 485.416 130.898L484.769 131.875C484.726 131.943 484.646 131.978 484.567 131.969L483.32 131.841C483.134 131.822 483.015 132.035 483.127 132.186L483.888 133.18C483.937 133.245 483.946 133.327 483.913 133.4L483.409 134.482C483.332 134.652 483.495 134.838 483.676 134.775L484.816 134.379C484.89 134.354 484.971 134.37 485.03 134.422L485.931 135.225C486.074 135.352 486.295 135.247 486.29 135.056L486.243 133.865C486.241 133.784 486.281 133.712 486.351 133.671L487.435 133.045C487.593 132.949 487.561 132.705 487.382 132.651Z" fill="white" stroke="white" stroke-width="0.000639995"/>
</g>
<g clip-path="url(#clip13_7_5100)">
<path d="M289.016 228.502L286.706 228.872C286.56 228.896 286.414 228.837 286.321 228.717L285.007 226.967C284.794 226.678 284.335 226.796 284.289 227.153L283.994 229.318C283.978 229.467 283.872 229.591 283.733 229.641L281.533 230.437C281.205 230.556 281.178 231.012 281.489 231.173L283.574 232.226C283.709 232.294 283.791 232.425 283.796 232.575L283.827 234.801C283.834 235.151 284.26 235.33 284.512 235.079L286.107 233.487C286.211 233.384 286.36 233.346 286.501 233.385L288.667 234.004C289.009 234.102 289.296 233.745 289.132 233.429L288.086 231.466C288.017 231.332 288.026 231.178 288.111 231.053L289.424 229.12C289.611 228.831 289.36 228.447 289.016 228.502Z" fill="white" stroke="white" stroke-width="0.000639995"/>
</g>
<g clip-path="url(#clip14_7_5100)">
<path d="M369.951 142.017L368.604 142.19C368.519 142.201 368.435 142.164 368.383 142.093L367.652 141.054C367.534 140.882 367.266 140.943 367.233 141.149L367.022 142.4C367.01 142.486 366.946 142.556 366.865 142.582L365.574 143.005C365.382 143.068 365.358 143.332 365.535 143.431L366.726 144.079C366.803 144.122 366.848 144.199 366.848 144.286L366.826 145.578C366.824 145.781 367.068 145.893 367.219 145.752L368.173 144.857C368.235 144.799 368.322 144.78 368.403 144.805L369.649 145.203C369.846 145.266 370.019 145.064 369.929 144.878L369.358 143.72C369.32 143.641 369.328 143.552 369.38 143.48L370.177 142.383C370.29 142.218 370.152 141.991 369.951 142.017Z" fill="white" stroke="white" stroke-width="0.000639995"/>
</g>
<g clip-path="url(#clip15_7_5100)">
<path d="M617.959 168.718L616.612 168.891C616.527 168.902 616.443 168.866 616.391 168.794L615.66 167.755C615.542 167.583 615.273 167.644 615.241 167.85L615.03 169.101C615.018 169.187 614.954 169.257 614.873 169.284L613.582 169.706C613.39 169.769 613.366 170.033 613.543 170.132L614.734 170.781C614.811 170.823 614.856 170.9 614.856 170.988L614.834 172.28C614.832 172.483 615.076 172.594 615.227 172.453L616.181 171.558C616.243 171.501 616.33 171.481 616.411 171.506L617.657 171.905C617.854 171.967 618.027 171.766 617.937 171.579L617.366 170.421C617.328 170.342 617.336 170.253 617.388 170.182L618.185 169.084C618.298 168.92 618.16 168.693 617.959 168.718Z" fill="white" stroke="white" stroke-width="0.000639995"/>
</g>
<g clip-path="url(#clip16_7_5100)">
<path d="M223.81 130.449L221.624 131.285C221.487 131.338 221.332 131.311 221.216 131.212L219.571 129.769C219.303 129.529 218.878 129.74 218.907 130.098L219.062 132.278C219.077 132.427 218.998 132.57 218.873 132.647L216.883 133.878C216.587 134.062 216.653 134.513 216.99 134.607L219.248 135.21C219.394 135.249 219.501 135.36 219.536 135.506L220.023 137.678C220.102 138.019 220.555 138.107 220.751 137.809L221.985 135.925C222.066 135.803 222.204 135.735 222.35 135.744L224.597 135.906C224.952 135.931 225.16 135.523 224.934 135.247L223.508 133.54C223.413 133.423 223.389 133.271 223.447 133.131L224.336 130.97C224.46 130.649 224.136 130.325 223.81 130.449Z" fill="white" stroke="white" stroke-width="0.000639995"/>
</g>
<g clip-path="url(#clip17_7_5100)">
<path d="M231.343 211.416L229.182 212.312C229.046 212.369 228.89 212.346 228.771 212.25L227.088 210.853C226.813 210.621 226.395 210.843 226.433 211.2L226.648 213.375C226.667 213.524 226.592 213.669 226.469 213.749L224.513 215.034C224.222 215.226 224.302 215.675 224.641 215.76L226.914 216.3C227.061 216.336 227.171 216.444 227.21 216.589L227.757 218.747C227.845 219.085 228.301 219.161 228.488 218.858L229.67 216.94C229.748 216.816 229.883 216.744 230.03 216.75L232.28 216.849C232.636 216.865 232.832 216.451 232.599 216.182L231.127 214.515C231.028 214.4 231.001 214.249 231.054 214.107L231.884 211.923C231.999 211.598 231.666 211.283 231.343 211.416Z" fill="white" stroke="white" stroke-width="0.000639995"/>
</g>
<g clip-path="url(#clip18_7_5100)">
<path d="M708.531 177.78L706.369 178.676C706.233 178.733 706.077 178.709 705.959 178.614L704.275 177.217C704.001 176.985 703.582 177.207 703.62 177.564L703.835 179.738C703.854 179.887 703.78 180.032 703.656 180.113L701.701 181.398C701.41 181.59 701.489 182.039 701.828 182.123L704.101 182.664C704.248 182.7 704.358 182.807 704.398 182.953L704.944 185.111C705.032 185.449 705.488 185.525 705.675 185.222L706.857 183.304C706.935 183.18 707.07 183.108 707.217 183.113L709.468 183.213C709.823 183.228 710.019 182.815 709.786 182.545L708.314 180.878C708.216 180.764 708.188 180.612 708.242 180.471L709.071 178.287C709.186 177.962 708.853 177.647 708.531 177.78Z" fill="white" stroke="white" stroke-width="0.000639995"/>
</g>
<g clip-path="url(#clip19_7_5100)">
<path d="M397.284 208.127L396.035 208.264C395.956 208.273 395.879 208.237 395.832 208.17L395.174 207.197C395.068 207.035 394.818 207.087 394.784 207.277L394.568 208.431C394.555 208.51 394.495 208.574 394.419 208.597L393.218 208.965C393.039 209.02 393.012 209.264 393.174 209.358L394.265 209.979C394.335 210.02 394.376 210.092 394.374 210.173L394.331 211.368C394.326 211.555 394.549 211.663 394.691 211.535L395.59 210.724C395.648 210.672 395.729 210.655 395.804 210.68L396.949 211.07C397.13 211.131 397.294 210.948 397.214 210.774L396.706 209.692C396.672 209.619 396.681 209.536 396.73 209.471L397.486 208.47C397.594 208.32 397.47 208.107 397.284 208.127Z" fill="white" stroke="white" stroke-width="0.000639995"/>
</g>
<g clip-path="url(#clip20_7_5100)">
<path d="M701.576 114.592L700.327 114.729C700.248 114.738 700.171 114.702 700.125 114.635L699.467 113.662C699.36 113.501 699.111 113.552 699.077 113.742L698.86 114.896C698.848 114.975 698.787 115.039 698.712 115.062L697.51 115.43C697.331 115.485 697.304 115.729 697.467 115.823L698.557 116.444C698.628 116.485 698.668 116.557 698.667 116.638L698.624 117.833C698.618 118.02 698.842 118.128 698.984 118L699.882 117.189C699.941 117.137 700.022 117.12 700.096 117.145L701.242 117.535C701.423 117.596 701.586 117.413 701.507 117.239L700.998 116.157C700.965 116.084 700.973 116.002 701.022 115.937L701.779 114.935C701.887 114.785 701.763 114.572 701.576 114.592Z" fill="white" stroke="white" stroke-width="0.000639995"/>
</g>
<g clip-path="url(#clip21_7_5100)">
<path d="M132.121 270.352L130.05 271.441C129.92 271.51 129.763 271.502 129.636 271.417L127.832 270.18C127.537 269.973 127.141 270.232 127.211 270.585L127.624 272.731C127.656 272.877 127.595 273.028 127.479 273.12L125.649 274.578C125.377 274.795 125.497 275.235 125.842 275.288L128.155 275.62C128.305 275.642 128.424 275.739 128.477 275.88L129.217 277.979C129.336 278.308 129.797 278.342 129.955 278.023L130.958 276.006C131.024 275.875 131.152 275.791 131.299 275.783L133.549 275.677C133.905 275.66 134.063 275.231 133.806 274.984L132.188 273.458C132.079 273.353 132.038 273.204 132.078 273.058L132.705 270.808C132.79 270.474 132.43 270.191 132.121 270.352Z" fill="white" stroke="white" stroke-width="0.000639995"/>
</g>
<g clip-path="url(#clip22_7_5100)">
<path d="M24.4056 434.491L23.3391 435.776C23.2722 435.857 23.1661 435.894 23.0593 435.873L21.5316 435.552C21.2812 435.496 21.0906 435.775 21.2337 435.988L22.0931 437.289C22.1543 437.377 22.1557 437.494 22.1045 437.586L21.2977 439.047C21.1778 439.265 21.3772 439.522 21.6196 439.463L23.2344 439.048C23.339 439.021 23.4443 439.053 23.5175 439.132L24.5803 440.312C24.7488 440.496 25.0616 440.392 25.0789 440.139L25.187 438.535C25.1947 438.431 25.2564 438.34 25.3507 438.295L26.8046 437.609C27.0343 437.5 27.0206 437.174 26.7837 437.082L25.2996 436.519C25.1996 436.48 25.1318 436.393 25.1184 436.286L24.9154 434.631C24.8796 434.388 24.5648 434.3 24.4056 434.491Z" fill="white" stroke="white" stroke-width="0.000639995"/>
</g>
<g clip-path="url(#clip23_7_5100)">
<path d="M33.211 381.218L31.9135 382.268C31.832 382.335 31.7206 382.35 31.62 382.309L30.1849 381.694C29.9503 381.591 29.7086 381.828 29.8072 382.064L30.395 383.509C30.4377 383.607 30.4163 383.721 30.3481 383.801L29.2705 385.077C29.1102 385.267 29.2554 385.558 29.5047 385.547L31.1695 385.457C31.2773 385.451 31.3744 385.503 31.4307 385.594L32.2416 386.96C32.3708 387.174 32.6979 387.133 32.7644 386.888L33.1848 385.336C33.2128 385.236 33.2911 385.159 33.3924 385.133L34.9525 384.745C35.199 384.684 35.2496 384.361 35.0354 384.224L33.6903 383.381C33.5999 383.323 33.5504 383.225 33.5583 383.117L33.6834 381.455C33.6961 381.209 33.4046 381.061 33.211 381.218Z" fill="white" stroke="white" stroke-width="0.000639995"/>
</g>
<defs>
<clipPath id="clip0_7_5100">
<rect width="4.48255" height="4.48255" fill="white" transform="translate(37.1782 328.466) rotate(-38.5595)"/>
</clipPath>
<clipPath id="clip1_7_5100">
<rect width="4.48255" height="4.48255" fill="white" transform="translate(347 247.794) rotate(-38.5595)"/>
</clipPath>
<clipPath id="clip2_7_5100">
<rect width="8.45855" height="8.45855" fill="white" transform="translate(104.11 332.801) rotate(-33.1391)"/>
</clipPath>
<clipPath id="clip3_7_5100">
<rect width="8.45855" height="8.45855" fill="white" transform="translate(192.898 267.65) rotate(-24.783)"/>
</clipPath>
<clipPath id="clip4_7_5100">
<rect width="8.45855" height="8.45855" fill="white" transform="translate(466.668 199.285) rotate(11.2821)"/>
</clipPath>
<clipPath id="clip5_7_5100">
<rect width="8.45855" height="8.45855" fill="white" transform="translate(570.655 212) rotate(11.2821)"/>
</clipPath>
<clipPath id="clip6_7_5100">
<rect width="8.45855" height="8.45855" fill="white" transform="translate(733.655 37) rotate(11.2821)"/>
</clipPath>
<clipPath id="clip7_7_5100">
<rect width="8.45855" height="8.45855" fill="white" transform="translate(612.655 109) rotate(11.2821)"/>
</clipPath>
<clipPath id="clip8_7_5100">
<rect width="4.53352" height="4.53352" fill="white" transform="translate(525.075 147.185) rotate(11.2821)"/>
</clipPath>
<clipPath id="clip9_7_5100">
<rect width="4.53352" height="4.53352" fill="white" transform="translate(761.887 86) rotate(11.2821)"/>
</clipPath>
<clipPath id="clip10_7_5100">
<rect width="4.53352" height="4.53352" fill="white" transform="translate(789.887 34) rotate(11.2821)"/>
</clipPath>
<clipPath id="clip11_7_5100">
<rect width="4.53352" height="4.53352" fill="white" transform="translate(756.887) rotate(11.2821)"/>
</clipPath>
<clipPath id="clip12_7_5100">
<rect width="4.53352" height="4.53352" fill="white" transform="translate(483.439 130.252) rotate(11.2821)"/>
</clipPath>
<clipPath id="clip13_7_5100">
<rect width="8.45855" height="8.45855" fill="white" transform="translate(280.444 227.671) rotate(-14.4999)"/>
</clipPath>
<clipPath id="clip14_7_5100">
<rect width="4.91069" height="4.91069" fill="white" transform="translate(364.992 141.38) rotate(-12.7178)"/>
</clipPath>
<clipPath id="clip15_7_5100">
<rect width="4.91069" height="4.91069" fill="white" transform="translate(613 168.081) rotate(-12.7178)"/>
</clipPath>
<clipPath id="clip16_7_5100">
<rect width="8.45855" height="8.45855" fill="white" transform="translate(215.25 131.393) rotate(-26.3356)"/>
</clipPath>
<clipPath id="clip17_7_5100">
<rect width="8.45855" height="8.45855" fill="white" transform="translate(222.813 212.596) rotate(-27.9114)"/>
</clipPath>
<clipPath id="clip18_7_5100">
<rect width="8.45855" height="8.45855" fill="white" transform="translate(700 178.959) rotate(-27.9114)"/>
</clipPath>
<clipPath id="clip19_7_5100">
<rect width="4.54369" height="4.54369" fill="white" transform="translate(392.708 207.452) rotate(-11.6401)"/>
</clipPath>
<clipPath id="clip20_7_5100">
<rect width="4.54369" height="4.54369" fill="white" transform="translate(697 113.917) rotate(-11.6401)"/>
</clipPath>
<clipPath id="clip21_7_5100">
<rect width="8.45855" height="8.45855" fill="white" transform="translate(123.733 272.304) rotate(-33.1391)"/>
</clipPath>
<clipPath id="clip22_7_5100">
<rect width="6.03599" height="6.03599" fill="white" transform="translate(19.4127 438.074) rotate(-55.7021)"/>
</clipPath>
<clipPath id="clip23_7_5100">
<rect width="6.03599" height="6.03599" fill="white" transform="translate(27.6129 383.753) rotate(-44.4014)"/>
</clipPath>
</defs>
</svg>
