<svg width="36" height="36" viewBox="0 0 36 36" fill="none" xmlns="http://www.w3.org/2000/svg">
<g id="linkedin-svgrepo-com (1) 1">
<g id="SVGRepo_iconCarrier">
<path id="Vector" d="M9.75 12C10.9926 12 12 10.9926 12 9.75C12 8.50735 10.9926 7.5 9.75 7.5C8.50735 7.5 7.5 8.50735 7.5 9.75C7.5 10.9926 8.50735 12 9.75 12Z" fill="white" stroke="black" stroke-width="0.00064"/>
<path id="Vector_2" d="M7.5 15C7.5 14.1716 8.17158 13.5 9 13.5H10.5C11.3284 13.5 12 14.1716 12 15V27C12 27.8285 11.3284 28.5 10.5 28.5H9C8.17158 28.5 7.5 27.8285 7.5 27V15Z" fill="white" stroke="black" stroke-width="0.00064"/>
<path id="Vector_3" d="M16.5 28.5H18C18.8284 28.5 19.5 27.8285 19.5 27V20.25C19.5 18 24 16.5 24 19.5V27.0006C24 27.8291 24.6715 28.5 25.5 28.5H27C27.8285 28.5 28.5 27.8285 28.5 27V18C28.5 15 26.25 13.5 23.25 13.5C20.25 13.5 19.5 15.75 19.5 15.75V15C19.5 14.1716 18.8284 13.5 18 13.5H16.5C15.6716 13.5 15 14.1716 15 15V27C15 27.8285 15.6716 28.5 16.5 28.5Z" fill="white" stroke="black" stroke-width="0.00064"/>
<path id="Vector_4" fill-rule="evenodd" clip-rule="evenodd" d="M30 1.5C32.4853 1.5 34.5 3.51472 34.5 6V30C34.5 32.4853 32.4853 34.5 30 34.5H6C3.51472 34.5 1.5 32.4853 1.5 30V6C1.5 3.51472 3.51472 1.5 6 1.5H30ZM30 4.5C30.8284 4.5 31.5 5.17158 31.5 6V30C31.5 30.8284 30.8284 31.5 30 31.5H6C5.17158 31.5 4.5 30.8284 4.5 30V6C4.5 5.17158 5.17158 4.5 6 4.5H30Z" fill="white" stroke="black" stroke-width="0.00064"/>
</g>
</g>
</svg>
