<svg width="1645" height="78" viewBox="0 0 1645 78" fill="none" xmlns="http://www.w3.org/2000/svg">
<path d="M0 59.5H519.474L595.069 1H1058.98L1134.57 59.5H1645" stroke="#F75049"/>
<path d="M1538.04 71.99C1538.04 72.5033 1537.97 72.98 1537.81 73.42C1537.67 73.86 1537.46 74.2433 1537.18 74.57C1536.91 74.8967 1536.58 75.1533 1536.19 75.34C1535.81 75.5267 1535.39 75.62 1534.92 75.62C1534.46 75.62 1534.03 75.53 1533.64 75.35C1533.26 75.1633 1532.94 74.9067 1532.66 74.58C1532.4 74.2533 1532.19 73.8733 1532.04 73.44C1531.9 73 1531.82 72.5233 1531.82 72.01C1531.82 71.5033 1531.9 71.03 1532.04 70.59C1532.2 70.1433 1532.41 69.7567 1532.68 69.43C1532.96 69.1033 1533.28 68.8467 1533.66 68.66C1534.05 68.4733 1534.48 68.38 1534.94 68.38C1535.41 68.38 1535.83 68.4733 1536.21 68.66C1536.6 68.84 1536.93 69.0933 1537.19 69.42C1537.47 69.7467 1537.68 70.13 1537.82 70.57C1537.97 71.01 1538.04 71.4833 1538.04 71.99ZM1536.46 72.01C1536.46 71.69 1536.43 71.3933 1536.35 71.12C1536.28 70.8467 1536.18 70.61 1536.04 70.41C1535.91 70.21 1535.75 70.0533 1535.55 69.94C1535.37 69.8267 1535.16 69.77 1534.92 69.77C1534.69 69.77 1534.48 69.8267 1534.29 69.94C1534.11 70.0467 1533.95 70.2 1533.81 70.4C1533.68 70.5933 1533.58 70.8267 1533.5 71.1C1533.44 71.3733 1533.4 71.67 1533.4 71.99C1533.4 72.31 1533.44 72.6067 1533.51 72.88C1533.59 73.1533 1533.69 73.39 1533.82 73.59C1533.96 73.79 1534.12 73.9467 1534.3 74.06C1534.5 74.1733 1534.71 74.23 1534.94 74.23C1535.18 74.23 1535.39 74.1767 1535.57 74.07C1535.76 73.9567 1535.92 73.8 1536.05 73.6C1536.19 73.4 1536.29 73.1667 1536.35 72.9C1536.43 72.6267 1536.46 72.33 1536.46 72.01ZM1541.68 69.78C1541.41 69.78 1541.16 69.8567 1540.95 70.01C1540.74 70.1633 1540.51 70.4 1540.25 70.72L1539.17 69.85C1539.34 69.6167 1539.52 69.41 1539.69 69.23C1539.87 69.05 1540.06 68.9 1540.26 68.78C1540.47 68.6533 1540.69 68.56 1540.94 68.5C1541.19 68.4333 1541.47 68.4 1541.78 68.4C1542.15 68.4 1542.49 68.4533 1542.78 68.56C1543.08 68.66 1543.33 68.8067 1543.54 69C1543.75 69.1867 1543.91 69.4133 1544.02 69.68C1544.13 69.9467 1544.19 70.2433 1544.19 70.57C1544.19 70.8633 1544.15 71.1267 1544.07 71.36C1544 71.5867 1543.88 71.8033 1543.73 72.01C1543.58 72.2167 1543.39 72.4233 1543.16 72.63C1542.93 72.83 1542.66 73.05 1542.35 73.29L1541.21 74.17H1544.26V75.5H1539.08V74.28L1541.41 72.37C1541.63 72.19 1541.82 72.03 1541.97 71.89C1542.12 71.7433 1542.25 71.6067 1542.34 71.48C1542.44 71.3467 1542.51 71.22 1542.55 71.1C1542.6 70.9733 1542.62 70.8367 1542.62 70.69C1542.62 70.39 1542.53 70.1633 1542.36 70.01C1542.19 69.8567 1541.96 69.78 1541.68 69.78ZM1545.06 69.05L1547.07 68.45H1548.12V75.5H1546.6V70.01L1545.38 70.31L1545.06 69.05ZM1552.58 69.82H1549.83V68.5H1554.56V69.66L1552.79 71.35C1553.03 71.39 1553.26 71.4533 1553.49 71.54C1553.72 71.6267 1553.92 71.75 1554.09 71.91C1554.26 72.0633 1554.4 72.2567 1554.51 72.49C1554.62 72.7167 1554.67 72.9933 1554.67 73.32C1554.67 73.6533 1554.61 73.96 1554.49 74.24C1554.38 74.52 1554.21 74.7633 1553.99 74.97C1553.78 75.1767 1553.51 75.3367 1553.2 75.45C1552.89 75.5633 1552.54 75.62 1552.15 75.62C1551.52 75.62 1550.98 75.51 1550.53 75.29C1550.09 75.0633 1549.72 74.77 1549.42 74.41L1550.48 73.4C1550.72 73.6733 1550.97 73.8833 1551.23 74.03C1551.5 74.17 1551.81 74.24 1552.17 74.24C1552.46 74.24 1552.7 74.1633 1552.88 74.01C1553.07 73.8567 1553.16 73.6467 1553.16 73.38C1553.16 73.0867 1553.04 72.8633 1552.8 72.71C1552.57 72.5567 1552.23 72.48 1551.79 72.48H1551.15L1550.91 71.5L1552.58 69.82ZM1555.49 69.05L1557.5 68.45H1558.55V75.5H1557.03V70.01L1555.81 70.31L1555.49 69.05ZM1566.62 67.52H1567.91L1563.48 76.78H1562.19L1566.62 67.52ZM1571.92 67.52H1573.21L1568.78 76.78H1567.49L1571.92 67.52ZM1576.31 69.05L1578.32 68.45H1579.37V75.5H1577.85V70.01L1576.63 70.31L1576.31 69.05ZM1583.38 69.78C1583.11 69.78 1582.86 69.8567 1582.65 70.01C1582.44 70.1633 1582.21 70.4 1581.95 70.72L1580.87 69.85C1581.04 69.6167 1581.22 69.41 1581.39 69.23C1581.57 69.05 1581.76 68.9 1581.96 68.78C1582.17 68.6533 1582.39 68.56 1582.64 68.5C1582.89 68.4333 1583.17 68.4 1583.48 68.4C1583.85 68.4 1584.19 68.4533 1584.48 68.56C1584.78 68.66 1585.03 68.8067 1585.24 69C1585.45 69.1867 1585.61 69.4133 1585.72 69.68C1585.83 69.9467 1585.89 70.2433 1585.89 70.57C1585.89 70.8633 1585.85 71.1267 1585.77 71.36C1585.7 71.5867 1585.58 71.8033 1585.43 72.01C1585.28 72.2167 1585.09 72.4233 1584.86 72.63C1584.63 72.83 1584.36 73.05 1584.05 73.29L1582.91 74.17H1585.96V75.5H1580.78V74.28L1583.11 72.37C1583.33 72.19 1583.52 72.03 1583.67 71.89C1583.82 71.7433 1583.95 71.6067 1584.04 71.48C1584.14 71.3467 1584.21 71.22 1584.25 71.1C1584.3 70.9733 1584.32 70.8367 1584.32 70.69C1584.32 70.39 1584.23 70.1633 1584.06 70.01C1583.89 69.8567 1583.66 69.78 1583.38 69.78ZM1590.06 69.82H1587.31V68.5L1592.04 68.5V69.66L1590.27 71.35C1590.51 71.39 1590.74 71.4533 1590.97 71.54C1591.2 71.6267 1591.4 71.75 1591.57 71.91C1591.74 72.0633 1591.88 72.2567 1591.99 72.49C1592.1 72.7167 1592.15 72.9933 1592.15 73.32C1592.15 73.6533 1592.09 73.96 1591.97 74.24C1591.86 74.52 1591.69 74.7633 1591.47 74.97C1591.26 75.1767 1590.99 75.3367 1590.68 75.45C1590.37 75.5633 1590.02 75.62 1589.63 75.62C1589 75.62 1588.46 75.51 1588.01 75.29C1587.57 75.0633 1587.2 74.77 1586.9 74.41L1587.96 73.4C1588.2 73.6733 1588.45 73.8833 1588.71 74.03C1588.98 74.17 1589.29 74.24 1589.65 74.24C1589.94 74.24 1590.18 74.1633 1590.36 74.01C1590.55 73.8567 1590.64 73.6467 1590.64 73.38C1590.64 73.0867 1590.52 72.8633 1590.28 72.71C1590.05 72.5567 1589.71 72.48 1589.27 72.48H1588.63L1588.39 71.5L1590.06 69.82ZM1593.63 71.95L1593.83 68.5H1598.13V69.85H1595.15L1595.07 71.06C1595.21 71.0267 1595.35 71 1595.49 70.98C1595.63 70.9533 1595.8 70.94 1595.99 70.94C1596.34 70.94 1596.66 70.9833 1596.95 71.07C1597.25 71.1567 1597.51 71.29 1597.73 71.47C1597.95 71.65 1598.12 71.8833 1598.25 72.17C1598.38 72.45 1598.44 72.79 1598.44 73.19C1598.44 73.5633 1598.38 73.9 1598.25 74.2C1598.12 74.5 1597.94 74.7567 1597.71 74.97C1597.48 75.1767 1597.2 75.3367 1596.87 75.45C1596.54 75.5633 1596.18 75.62 1595.78 75.62C1595.21 75.62 1594.72 75.5267 1594.3 75.34C1593.88 75.1533 1593.5 74.8967 1593.16 74.57L1594.09 73.46C1594.36 73.7 1594.62 73.8867 1594.89 74.02C1595.16 74.1533 1595.45 74.22 1595.76 74.22C1596.12 74.22 1596.4 74.1367 1596.61 73.97C1596.82 73.8033 1596.93 73.56 1596.93 73.24C1596.93 72.9333 1596.82 72.6967 1596.59 72.53C1596.37 72.3633 1596.07 72.28 1595.69 72.28C1595.47 72.28 1595.26 72.3067 1595.06 72.36C1594.87 72.4067 1594.69 72.4667 1594.52 72.54L1593.63 71.95ZM1605.11 71.79C1605.11 72.3633 1605.04 72.8867 1604.91 73.36C1604.78 73.8267 1604.58 74.2267 1604.32 74.56C1604.07 74.8933 1603.75 75.1533 1603.37 75.34C1602.99 75.5267 1602.55 75.62 1602.05 75.62C1601.54 75.62 1601.1 75.5433 1600.74 75.39C1600.38 75.2367 1600.05 75.0367 1599.75 74.79L1600.56 73.62C1600.81 73.8267 1601.06 73.98 1601.29 74.08C1601.52 74.1733 1601.79 74.22 1602.09 74.22C1602.52 74.22 1602.85 74.0733 1603.08 73.78C1603.31 73.4867 1603.46 73.1033 1603.51 72.63C1603.34 72.7767 1603.13 72.8933 1602.9 72.98C1602.67 73.0667 1602.4 73.11 1602.09 73.11C1601.71 73.11 1601.37 73.06 1601.06 72.96C1600.75 72.8533 1600.49 72.7033 1600.27 72.51C1600.05 72.3167 1599.88 72.08 1599.76 71.8C1599.65 71.52 1599.59 71.2 1599.59 70.84C1599.59 70.4867 1599.65 70.16 1599.78 69.86C1599.91 69.56 1600.1 69.3 1600.33 69.08C1600.56 68.86 1600.84 68.69 1601.17 68.57C1601.5 68.4433 1601.87 68.38 1602.26 68.38C1602.49 68.38 1602.7 68.3967 1602.89 68.43C1603.08 68.4567 1603.26 68.5 1603.42 68.56C1603.58 68.62 1603.73 68.7 1603.87 68.8C1604.01 68.8933 1604.15 69.0067 1604.28 69.14C1604.41 69.2667 1604.52 69.41 1604.62 69.57C1604.72 69.73 1604.81 69.9167 1604.88 70.13C1604.95 70.3433 1605.01 70.5867 1605.05 70.86C1605.09 71.1333 1605.11 71.4433 1605.11 71.79ZM1603.54 70.78C1603.54 70.46 1603.43 70.2 1603.21 70C1603 69.8 1602.7 69.7 1602.31 69.7C1601.93 69.7 1601.64 69.8 1601.43 70C1601.22 70.1933 1601.12 70.45 1601.12 70.77C1601.12 71.09 1601.23 71.3467 1601.44 71.54C1601.66 71.7333 1601.96 71.83 1602.34 71.83C1602.72 71.83 1603.01 71.7333 1603.22 71.54C1603.43 71.34 1603.54 71.0867 1603.54 70.78ZM1611.45 69.15L1610.64 70.34C1610.53 70.2533 1610.42 70.1767 1610.31 70.11C1610.2 70.0367 1610.09 69.9767 1609.98 69.93C1609.87 69.8833 1609.75 69.8467 1609.62 69.82C1609.49 69.7933 1609.36 69.78 1609.21 69.78C1608.99 69.78 1608.8 69.8233 1608.63 69.91C1608.47 69.99 1608.33 70.1033 1608.21 70.25C1608.1 70.39 1608.01 70.56 1607.94 70.76C1607.87 70.96 1607.83 71.1733 1607.8 71.4C1607.97 71.2867 1608.17 71.1833 1608.39 71.09C1608.62 70.9967 1608.9 70.95 1609.25 70.95C1609.6 70.95 1609.92 71 1610.22 71.1C1610.52 71.1933 1610.78 71.3333 1611 71.52C1611.22 71.7067 1611.39 71.94 1611.52 72.22C1611.65 72.5 1611.71 72.8233 1611.71 73.19C1611.71 73.55 1611.64 73.88 1611.5 74.18C1611.37 74.4733 1611.18 74.73 1610.94 74.95C1610.71 75.1633 1610.43 75.33 1610.1 75.45C1609.77 75.5633 1609.42 75.62 1609.04 75.62C1608.58 75.62 1608.19 75.5567 1607.87 75.43C1607.55 75.3033 1607.27 75.1167 1607.02 74.87C1606.77 74.6167 1606.56 74.2867 1606.41 73.88C1606.26 73.4667 1606.19 72.91 1606.19 72.21C1606.19 71.67 1606.25 71.1667 1606.37 70.7C1606.5 70.2333 1606.69 69.83 1606.94 69.49C1607.19 69.1433 1607.51 68.8733 1607.9 68.68C1608.29 68.48 1608.74 68.38 1609.26 68.38C1609.5 68.38 1609.72 68.3967 1609.92 68.43C1610.12 68.4633 1610.31 68.5133 1610.48 68.58C1610.65 68.6467 1610.82 68.73 1610.98 68.83C1611.14 68.9233 1611.3 69.03 1611.45 69.15ZM1610.18 73.26C1610.18 72.96 1610.07 72.7133 1609.85 72.52C1609.64 72.3267 1609.34 72.23 1608.96 72.23C1608.58 72.23 1608.28 72.3267 1608.07 72.52C1607.86 72.7067 1607.76 72.95 1607.76 73.25C1607.76 73.5567 1607.87 73.81 1608.08 74.01C1608.3 74.2033 1608.6 74.3 1608.98 74.3C1609.36 74.3 1609.65 74.2033 1609.86 74.01C1610.07 73.8167 1610.18 73.5667 1610.18 73.26ZM1612.95 69.83V68.5H1617.99V69.66L1614.85 75.5H1613.11L1616.24 69.83H1612.95Z" fill="#F75049" fill-opacity="0.5"/>
</svg>
