<svg width="1273" height="77" viewBox="0 0 1273 77" fill="none" xmlns="http://www.w3.org/2000/svg">
<path d="M0 59H402L460.5 0.5H819.5L878 59H1273" stroke="#F75049"/>
<path d="M1191.76 71.49C1191.76 72.0033 1191.68 72.48 1191.53 72.92C1191.38 73.36 1191.17 73.7433 1190.9 74.07C1190.63 74.3967 1190.3 74.6533 1189.91 74.84C1189.53 75.0267 1189.11 75.12 1188.64 75.12C1188.17 75.12 1187.75 75.03 1187.36 74.85C1186.98 74.6633 1186.65 74.4067 1186.38 74.08C1186.11 73.7533 1185.91 73.3733 1185.76 72.94C1185.61 72.5 1185.54 72.0233 1185.54 71.51C1185.54 71.0033 1185.61 70.53 1185.76 70.09C1185.91 69.6433 1186.13 69.2567 1186.4 68.93C1186.67 68.6033 1187 68.3467 1187.38 68.16C1187.77 67.9733 1188.19 67.88 1188.66 67.88C1189.13 67.88 1189.55 67.9733 1189.93 68.16C1190.32 68.34 1190.64 68.5933 1190.91 68.92C1191.18 69.2467 1191.39 69.63 1191.54 70.07C1191.69 70.51 1191.76 70.9833 1191.76 71.49ZM1190.18 71.51C1190.18 71.19 1190.14 70.8933 1190.07 70.62C1190 70.3467 1189.89 70.11 1189.76 69.91C1189.63 69.71 1189.46 69.5533 1189.27 69.44C1189.08 69.3267 1188.87 69.27 1188.64 69.27C1188.41 69.27 1188.2 69.3267 1188.01 69.44C1187.82 69.5467 1187.66 69.7 1187.53 69.9C1187.4 70.0933 1187.29 70.3267 1187.22 70.6C1187.15 70.8733 1187.12 71.17 1187.12 71.49C1187.12 71.81 1187.16 72.1067 1187.23 72.38C1187.3 72.6533 1187.41 72.89 1187.54 73.09C1187.67 73.29 1187.83 73.4467 1188.02 73.56C1188.21 73.6733 1188.43 73.73 1188.66 73.73C1188.89 73.73 1189.1 73.6767 1189.29 73.57C1189.48 73.4567 1189.64 73.3 1189.77 73.1C1189.9 72.9 1190 72.6667 1190.07 72.4C1190.14 72.1267 1190.18 71.83 1190.18 71.51ZM1195.39 69.28C1195.12 69.28 1194.88 69.3567 1194.66 69.51C1194.46 69.6633 1194.22 69.9 1193.96 70.22L1192.88 69.35C1193.06 69.1167 1193.23 68.91 1193.4 68.73C1193.58 68.55 1193.77 68.4 1193.97 68.28C1194.18 68.1533 1194.41 68.06 1194.65 68C1194.9 67.9333 1195.18 67.9 1195.49 67.9C1195.87 67.9 1196.2 67.9533 1196.49 68.06C1196.79 68.16 1197.05 68.3067 1197.25 68.5C1197.47 68.6867 1197.63 68.9133 1197.73 69.18C1197.85 69.4467 1197.9 69.7433 1197.9 70.07C1197.9 70.3633 1197.86 70.6267 1197.78 70.86C1197.71 71.0867 1197.6 71.3033 1197.44 71.51C1197.3 71.7167 1197.11 71.9233 1196.87 72.13C1196.64 72.33 1196.37 72.55 1196.06 72.79L1194.92 73.67H1197.97V75H1192.79V73.78L1195.12 71.87C1195.34 71.69 1195.53 71.53 1195.68 71.39C1195.84 71.2433 1195.96 71.1067 1196.05 70.98C1196.15 70.8467 1196.22 70.72 1196.26 70.6C1196.31 70.4733 1196.33 70.3367 1196.33 70.19C1196.33 69.89 1196.25 69.6633 1196.07 69.51C1195.9 69.3567 1195.67 69.28 1195.39 69.28ZM1198.78 68.55L1200.79 67.95H1201.84V75H1200.32V69.51L1199.1 69.81L1198.78 68.55ZM1206.29 69.32H1203.54V68H1208.27V69.16L1206.5 70.85C1206.74 70.89 1206.98 70.9533 1207.2 71.04C1207.43 71.1267 1207.63 71.25 1207.8 71.41C1207.98 71.5633 1208.12 71.7567 1208.22 71.99C1208.33 72.2167 1208.38 72.4933 1208.38 72.82C1208.38 73.1533 1208.32 73.46 1208.2 73.74C1208.09 74.02 1207.92 74.2633 1207.7 74.47C1207.49 74.6767 1207.23 74.8367 1206.91 74.95C1206.6 75.0633 1206.25 75.12 1205.86 75.12C1205.23 75.12 1204.69 75.01 1204.24 74.79C1203.8 74.5633 1203.43 74.27 1203.13 73.91L1204.19 72.9C1204.43 73.1733 1204.68 73.3833 1204.94 73.53C1205.21 73.67 1205.52 73.74 1205.88 73.74C1206.18 73.74 1206.41 73.6633 1206.59 73.51C1206.78 73.3567 1206.87 73.1467 1206.87 72.88C1206.87 72.5867 1206.75 72.3633 1206.51 72.21C1206.28 72.0567 1205.94 71.98 1205.5 71.98H1204.86L1204.62 71L1206.29 69.32ZM1209.2 68.55L1211.21 67.95H1212.26V75H1210.74V69.51L1209.52 69.81L1209.2 68.55ZM1220.33 67.02H1221.62L1217.19 76.28H1215.9L1220.33 67.02ZM1225.63 67.02H1226.92L1222.49 76.28H1221.2L1225.63 67.02ZM1230.03 68.55L1232.04 67.95H1233.09V75H1231.57V69.51L1230.35 69.81L1230.03 68.55ZM1237.09 69.28C1236.82 69.28 1236.58 69.3567 1236.36 69.51C1236.16 69.6633 1235.92 69.9 1235.66 70.22L1234.58 69.35C1234.76 69.1167 1234.93 68.91 1235.1 68.73C1235.28 68.55 1235.47 68.4 1235.67 68.28C1235.88 68.1533 1236.11 68.06 1236.35 68C1236.6 67.9333 1236.88 67.9 1237.19 67.9C1237.57 67.9 1237.9 67.9533 1238.19 68.06C1238.49 68.16 1238.75 68.3067 1238.95 68.5C1239.17 68.6867 1239.33 68.9133 1239.43 69.18C1239.55 69.4467 1239.6 69.7433 1239.6 70.07C1239.6 70.3633 1239.56 70.6267 1239.48 70.86C1239.41 71.0867 1239.3 71.3033 1239.14 71.51C1239 71.7167 1238.81 71.9233 1238.57 72.13C1238.34 72.33 1238.07 72.55 1237.76 72.79L1236.62 73.67H1239.67V75L1234.49 75V73.78L1236.82 71.87C1237.04 71.69 1237.23 71.53 1237.38 71.39C1237.54 71.2433 1237.66 71.1067 1237.75 70.98C1237.85 70.8467 1237.92 70.72 1237.96 70.6C1238.01 70.4733 1238.03 70.3367 1238.03 70.19C1238.03 69.89 1237.95 69.6633 1237.77 69.51C1237.6 69.3567 1237.37 69.28 1237.09 69.28ZM1243.77 69.32H1241.02V68H1245.75V69.16L1243.98 70.85C1244.22 70.89 1244.46 70.9533 1244.68 71.04C1244.91 71.1267 1245.11 71.25 1245.28 71.41C1245.46 71.5633 1245.6 71.7567 1245.7 71.99C1245.81 72.2167 1245.86 72.4933 1245.86 72.82C1245.86 73.1533 1245.8 73.46 1245.68 73.74C1245.57 74.02 1245.4 74.2633 1245.18 74.47C1244.97 74.6767 1244.71 74.8367 1244.39 74.95C1244.08 75.0633 1243.73 75.12 1243.34 75.12C1242.71 75.12 1242.17 75.01 1241.72 74.79C1241.28 74.5633 1240.91 74.27 1240.61 73.91L1241.67 72.9C1241.91 73.1733 1242.16 73.3833 1242.42 73.53C1242.69 73.67 1243 73.74 1243.36 73.74C1243.66 73.74 1243.89 73.6633 1244.07 73.51C1244.26 73.3567 1244.35 73.1467 1244.35 72.88C1244.35 72.5867 1244.23 72.3633 1243.99 72.21C1243.76 72.0567 1243.42 71.98 1242.98 71.98H1242.34L1242.1 71L1243.77 69.32ZM1247.35 71.45L1247.55 68H1251.85V69.35H1248.87L1248.79 70.56C1248.93 70.5267 1249.07 70.5 1249.21 70.48C1249.35 70.4533 1249.51 70.44 1249.71 70.44C1250.05 70.44 1250.37 70.4833 1250.67 70.57C1250.97 70.6567 1251.23 70.79 1251.45 70.97C1251.67 71.15 1251.84 71.3833 1251.97 71.67C1252.09 71.95 1252.16 72.29 1252.16 72.69C1252.16 73.0633 1252.09 73.4 1251.97 73.7C1251.84 74 1251.66 74.2567 1251.43 74.47C1251.2 74.6767 1250.92 74.8367 1250.59 74.95C1250.26 75.0633 1249.9 75.12 1249.5 75.12C1248.93 75.12 1248.44 75.0267 1248.02 74.84C1247.6 74.6533 1247.22 74.3967 1246.88 74.07L1247.81 72.96C1248.07 73.2 1248.34 73.3867 1248.61 73.52C1248.87 73.6533 1249.16 73.72 1249.48 73.72C1249.84 73.72 1250.12 73.6367 1250.33 73.47C1250.54 73.3033 1250.65 73.06 1250.65 72.74C1250.65 72.4333 1250.53 72.1967 1250.31 72.03C1250.09 71.8633 1249.79 71.78 1249.41 71.78C1249.19 71.78 1248.98 71.8067 1248.78 71.86C1248.58 71.9067 1248.4 71.9667 1248.24 72.04L1247.35 71.45ZM1258.82 71.29C1258.82 71.8633 1258.76 72.3867 1258.62 72.86C1258.49 73.3267 1258.29 73.7267 1258.03 74.06C1257.78 74.3933 1257.46 74.6533 1257.08 74.84C1256.7 75.0267 1256.26 75.12 1255.76 75.12C1255.25 75.12 1254.81 75.0433 1254.45 74.89C1254.09 74.7367 1253.76 74.5367 1253.46 74.29L1254.27 73.12C1254.53 73.3267 1254.77 73.48 1255 73.58C1255.24 73.6733 1255.5 73.72 1255.8 73.72C1256.24 73.72 1256.57 73.5733 1256.79 73.28C1257.03 72.9867 1257.17 72.6033 1257.22 72.13C1257.05 72.2767 1256.85 72.3933 1256.61 72.48C1256.38 72.5667 1256.11 72.61 1255.8 72.61C1255.42 72.61 1255.08 72.56 1254.77 72.46C1254.47 72.3533 1254.2 72.2033 1253.98 72.01C1253.76 71.8167 1253.59 71.58 1253.47 71.3C1253.36 71.02 1253.3 70.7 1253.3 70.34C1253.3 69.9867 1253.37 69.66 1253.49 69.36C1253.63 69.06 1253.81 68.8 1254.04 68.58C1254.28 68.36 1254.56 68.19 1254.88 68.07C1255.22 67.9433 1255.58 67.88 1255.97 67.88C1256.21 67.88 1256.42 67.8967 1256.6 67.93C1256.8 67.9567 1256.97 68 1257.13 68.06C1257.29 68.12 1257.44 68.2 1257.58 68.3C1257.72 68.3933 1257.86 68.5067 1257.99 68.64C1258.12 68.7667 1258.23 68.91 1258.33 69.07C1258.43 69.23 1258.52 69.4167 1258.59 69.63C1258.67 69.8433 1258.72 70.0867 1258.76 70.36C1258.8 70.6333 1258.82 70.9433 1258.82 71.29ZM1257.25 70.28C1257.25 69.96 1257.14 69.7 1256.92 69.5C1256.71 69.3 1256.41 69.2 1256.02 69.2C1255.64 69.2 1255.35 69.3 1255.14 69.5C1254.94 69.6933 1254.83 69.95 1254.83 70.27C1254.83 70.59 1254.94 70.8467 1255.15 71.04C1255.37 71.2333 1255.67 71.33 1256.05 71.33C1256.43 71.33 1256.73 71.2333 1256.93 71.04C1257.15 70.84 1257.25 70.5867 1257.25 70.28ZM1265.17 68.65L1264.36 69.84C1264.24 69.7533 1264.13 69.6767 1264.03 69.61C1263.92 69.5367 1263.81 69.4767 1263.7 69.43C1263.58 69.3833 1263.46 69.3467 1263.34 69.32C1263.21 69.2933 1263.07 69.28 1262.93 69.28C1262.71 69.28 1262.51 69.3233 1262.35 69.41C1262.19 69.49 1262.05 69.6033 1261.93 69.75C1261.81 69.89 1261.72 70.06 1261.66 70.26C1261.59 70.46 1261.54 70.6733 1261.52 70.9C1261.69 70.7867 1261.89 70.6833 1262.11 70.59C1262.33 70.4967 1262.62 70.45 1262.97 70.45C1263.31 70.45 1263.64 70.5 1263.94 70.6C1264.24 70.6933 1264.5 70.8333 1264.72 71.02C1264.94 71.2067 1265.11 71.44 1265.24 71.72C1265.36 72 1265.43 72.3233 1265.43 72.69C1265.43 73.05 1265.36 73.38 1265.22 73.68C1265.08 73.9733 1264.9 74.23 1264.66 74.45C1264.42 74.6633 1264.14 74.83 1263.82 74.95C1263.49 75.0633 1263.14 75.12 1262.76 75.12C1262.3 75.12 1261.91 75.0567 1261.59 74.93C1261.27 74.8033 1260.98 74.6167 1260.74 74.37C1260.48 74.1167 1260.28 73.7867 1260.13 73.38C1259.98 72.9667 1259.91 72.41 1259.91 71.71C1259.91 71.17 1259.97 70.6667 1260.09 70.2C1260.21 69.7333 1260.4 69.33 1260.66 68.99C1260.91 68.6433 1261.23 68.3733 1261.62 68.18C1262 67.98 1262.46 67.88 1262.98 67.88C1263.22 67.88 1263.44 67.8967 1263.64 67.93C1263.84 67.9633 1264.02 68.0133 1264.2 68.08C1264.37 68.1467 1264.54 68.23 1264.7 68.33C1264.86 68.4233 1265.01 68.53 1265.17 68.65ZM1263.9 72.76C1263.9 72.46 1263.79 72.2133 1263.57 72.02C1263.35 71.8267 1263.06 71.73 1262.68 71.73C1262.3 71.73 1262 71.8267 1261.79 72.02C1261.58 72.2067 1261.48 72.45 1261.48 72.75C1261.48 73.0567 1261.58 73.31 1261.8 73.51C1262.02 73.7033 1262.32 73.8 1262.7 73.8C1263.08 73.8 1263.37 73.7033 1263.58 73.51C1263.79 73.3167 1263.9 73.0667 1263.9 72.76ZM1266.67 69.33V68H1271.71V69.16L1268.57 75H1266.83L1269.96 69.33H1266.67Z" fill="#F75049" fill-opacity="0.5"/>
</svg>
