<svg width="8" height="1024" viewBox="0 0 8 1024" fill="none" xmlns="http://www.w3.org/2000/svg">
<g opacity="0.2">
<rect y="2" width="3" height="3" fill="#F75049"/>
<rect x="4" y="2" width="4" height="3" fill="#F75049"/>
</g>
<g opacity="0.2">
<rect y="7" width="3" height="3" fill="#F75049"/>
<rect x="4" y="7" width="4" height="3" fill="#F75049"/>
</g>
<g opacity="0.2">
<rect y="12" width="5" height="3" fill="#F75049"/>
<rect x="6" y="12" width="2" height="3" fill="#F75049"/>
</g>
<g opacity="0.2">
<rect y="17" width="6" height="3" fill="#F75049"/>
<rect x="7" y="17" width="1" height="3" fill="#F75049"/>
</g>
<g opacity="0.2">
<rect y="22" width="3" height="3" fill="#F75049"/>
<rect x="4" y="22" width="4" height="3" fill="#F75049"/>
</g>
<g opacity="0.2">
<rect y="27" width="4" height="3" fill="#F75049"/>
<rect x="5" y="27" width="3" height="3" fill="#F75049"/>
</g>
<g opacity="0.2">
<rect y="32" width="3" height="3" fill="#F75049"/>
<rect x="4" y="32" width="4" height="3" fill="#F75049"/>
</g>
<g opacity="0.2">
<rect y="37" width="3" height="3" fill="#F75049"/>
<rect x="4" y="37" width="4" height="3" fill="#F75049"/>
</g>
<g opacity="0.2">
<rect y="42" width="5" height="3" fill="#F75049"/>
<rect x="6" y="42" width="2" height="3" fill="#F75049"/>
</g>
<g opacity="0.2">
<rect y="47" width="6" height="3" fill="#F75049"/>
<rect x="7" y="47" width="1" height="3" fill="#F75049"/>
</g>
<g opacity="0.2">
<rect y="52" width="3" height="3" fill="#F75049"/>
<rect x="4" y="52" width="4" height="3" fill="#F75049"/>
</g>
<g opacity="0.2">
<rect y="57" width="4" height="3" fill="#F75049"/>
<rect x="5" y="57" width="3" height="3" fill="#F75049"/>
</g>
<g opacity="0.2">
<rect y="62" width="3" height="3" fill="#F75049"/>
<rect x="4" y="62" width="4" height="3" fill="#F75049"/>
</g>
<g opacity="0.2">
<rect y="67" width="3" height="3" fill="#F75049"/>
<rect x="4" y="67" width="4" height="3" fill="#F75049"/>
</g>
<g opacity="0.2">
<rect y="72" width="5" height="3" fill="#F75049"/>
<rect x="6" y="72" width="2" height="3" fill="#F75049"/>
</g>
<g opacity="0.2">
<rect y="77" width="6" height="3" fill="#F75049"/>
<rect x="7" y="77" width="1" height="3" fill="#F75049"/>
</g>
<g opacity="0.2">
<rect y="82" width="3" height="3" fill="#F75049"/>
<rect x="4" y="82" width="4" height="3" fill="#F75049"/>
</g>
<g opacity="0.2">
<rect y="87" width="4" height="3" fill="#F75049"/>
<rect x="5" y="87" width="3" height="3" fill="#F75049"/>
</g>
<g opacity="0.2">
<rect y="92" width="3" height="3" fill="#F75049"/>
<rect x="4" y="92" width="4" height="3" fill="#F75049"/>
</g>
<g opacity="0.2">
<rect y="97" width="3" height="3" fill="#F75049"/>
<rect x="4" y="97" width="4" height="3" fill="#F75049"/>
</g>
<g opacity="0.2">
<rect y="102" width="5" height="3" fill="#F75049"/>
<rect x="6" y="102" width="2" height="3" fill="#F75049"/>
</g>
<g opacity="0.2">
<rect y="107" width="6" height="3" fill="#F75049"/>
<rect x="7" y="107" width="1" height="3" fill="#F75049"/>
</g>
<g opacity="0.2">
<rect y="112" width="3" height="3" fill="#F75049"/>
<rect x="4" y="112" width="4" height="3" fill="#F75049"/>
</g>
<g opacity="0.2">
<rect y="117" width="4" height="3" fill="#F75049"/>
<rect x="5" y="117" width="3" height="3" fill="#F75049"/>
</g>
<g opacity="0.2">
<rect y="122" width="3" height="3" fill="#F75049"/>
<rect x="4" y="122" width="4" height="3" fill="#F75049"/>
</g>
<g opacity="0.2">
<rect y="127" width="3" height="3" fill="#F75049"/>
<rect x="4" y="127" width="4" height="3" fill="#F75049"/>
</g>
<g opacity="0.2">
<rect y="132" width="5" height="3" fill="#F75049"/>
<rect x="6" y="132" width="2" height="3" fill="#F75049"/>
</g>
<g opacity="0.2">
<rect y="137" width="6" height="3" fill="#F75049"/>
<rect x="7" y="137" width="1" height="3" fill="#F75049"/>
</g>
<g opacity="0.2">
<rect y="142" width="3" height="3" fill="#F75049"/>
<rect x="4" y="142" width="4" height="3" fill="#F75049"/>
</g>
<g opacity="0.2">
<rect y="147" width="4" height="3" fill="#F75049"/>
<rect x="5" y="147" width="3" height="3" fill="#F75049"/>
</g>
<g opacity="0.2">
<rect y="152" width="3" height="3" fill="#F75049"/>
<rect x="4" y="152" width="4" height="3" fill="#F75049"/>
</g>
<g opacity="0.2">
<rect y="157" width="3" height="3" fill="#F75049"/>
<rect x="4" y="157" width="4" height="3" fill="#F75049"/>
</g>
<g opacity="0.2">
<rect y="162" width="5" height="3" fill="#F75049"/>
<rect x="6" y="162" width="2" height="3" fill="#F75049"/>
</g>
<g opacity="0.2">
<rect y="167" width="6" height="3" fill="#F75049"/>
<rect x="7" y="167" width="1" height="3" fill="#F75049"/>
</g>
<g opacity="0.2">
<rect y="172" width="3" height="3" fill="#F75049"/>
<rect x="4" y="172" width="4" height="3" fill="#F75049"/>
</g>
<g opacity="0.2">
<rect y="177" width="4" height="3" fill="#F75049"/>
<rect x="5" y="177" width="3" height="3" fill="#F75049"/>
</g>
<g opacity="0.2">
<rect y="182" width="3" height="3" fill="#F75049"/>
<rect x="4" y="182" width="4" height="3" fill="#F75049"/>
</g>
<g opacity="0.2">
<rect y="187" width="3" height="3" fill="#F75049"/>
<rect x="4" y="187" width="4" height="3" fill="#F75049"/>
</g>
<g opacity="0.2">
<rect y="192" width="5" height="3" fill="#F75049"/>
<rect x="6" y="192" width="2" height="3" fill="#F75049"/>
</g>
<g opacity="0.2">
<rect y="197" width="6" height="3" fill="#F75049"/>
<rect x="7" y="197" width="1" height="3" fill="#F75049"/>
</g>
<g opacity="0.2">
<rect y="202" width="3" height="3" fill="#F75049"/>
<rect x="4" y="202" width="4" height="3" fill="#F75049"/>
</g>
<g opacity="0.2">
<rect y="207" width="4" height="3" fill="#F75049"/>
<rect x="5" y="207" width="3" height="3" fill="#F75049"/>
</g>
<g opacity="0.2">
<rect y="212" width="3" height="3" fill="#F75049"/>
<rect x="4" y="212" width="4" height="3" fill="#F75049"/>
</g>
<g opacity="0.2">
<rect y="217" width="3" height="3" fill="#F75049"/>
<rect x="4" y="217" width="4" height="3" fill="#F75049"/>
</g>
<g opacity="0.2">
<rect y="222" width="5" height="3" fill="#F75049"/>
<rect x="6" y="222" width="2" height="3" fill="#F75049"/>
</g>
<g opacity="0.2">
<rect y="227" width="6" height="3" fill="#F75049"/>
<rect x="7" y="227" width="1" height="3" fill="#F75049"/>
</g>
<g opacity="0.2">
<rect y="232" width="3" height="3" fill="#F75049"/>
<rect x="4" y="232" width="4" height="3" fill="#F75049"/>
</g>
<g opacity="0.2">
<rect y="237" width="4" height="3" fill="#F75049"/>
<rect x="5" y="237" width="3" height="3" fill="#F75049"/>
</g>
<g opacity="0.2">
<rect y="242" width="3" height="3" fill="#F75049"/>
<rect x="4" y="242" width="4" height="3" fill="#F75049"/>
</g>
<g opacity="0.2">
<rect y="247" width="3" height="3" fill="#F75049"/>
<rect x="4" y="247" width="4" height="3" fill="#F75049"/>
</g>
<g opacity="0.2">
<rect y="252" width="5" height="3" fill="#F75049"/>
<rect x="6" y="252" width="2" height="3" fill="#F75049"/>
</g>
<g opacity="0.2">
<rect y="257" width="6" height="3" fill="#F75049"/>
<rect x="7" y="257" width="1" height="3" fill="#F75049"/>
</g>
<g opacity="0.2">
<rect y="262" width="3" height="3" fill="#F75049"/>
<rect x="4" y="262" width="4" height="3" fill="#F75049"/>
</g>
<g opacity="0.2">
<rect y="267" width="4" height="3" fill="#F75049"/>
<rect x="5" y="267" width="3" height="3" fill="#F75049"/>
</g>
<g opacity="0.2">
<rect y="272" width="3" height="3" fill="#F75049"/>
<rect x="4" y="272" width="4" height="3" fill="#F75049"/>
</g>
<g opacity="0.2">
<rect y="277" width="3" height="3" fill="#F75049"/>
<rect x="4" y="277" width="4" height="3" fill="#F75049"/>
</g>
<g opacity="0.2">
<rect y="282" width="5" height="3" fill="#F75049"/>
<rect x="6" y="282" width="2" height="3" fill="#F75049"/>
</g>
<g opacity="0.2">
<rect y="287" width="6" height="3" fill="#F75049"/>
<rect x="7" y="287" width="1" height="3" fill="#F75049"/>
</g>
<g opacity="0.2">
<rect y="292" width="3" height="3" fill="#F75049"/>
<rect x="4" y="292" width="4" height="3" fill="#F75049"/>
</g>
<g opacity="0.2">
<rect y="297" width="4" height="3" fill="#F75049"/>
<rect x="5" y="297" width="3" height="3" fill="#F75049"/>
</g>
<g opacity="0.2">
<rect y="302" width="3" height="3" fill="#F75049"/>
<rect x="4" y="302" width="4" height="3" fill="#F75049"/>
</g>
<g opacity="0.2">
<rect y="307" width="3" height="3" fill="#F75049"/>
<rect x="4" y="307" width="4" height="3" fill="#F75049"/>
</g>
<g opacity="0.2">
<rect y="312" width="5" height="3" fill="#F75049"/>
<rect x="6" y="312" width="2" height="3" fill="#F75049"/>
</g>
<g opacity="0.2">
<rect y="317" width="6" height="3" fill="#F75049"/>
<rect x="7" y="317" width="1" height="3" fill="#F75049"/>
</g>
<g opacity="0.2">
<rect y="322" width="3" height="3" fill="#F75049"/>
<rect x="4" y="322" width="4" height="3" fill="#F75049"/>
</g>
<g opacity="0.2">
<rect y="327" width="4" height="3" fill="#F75049"/>
<rect x="5" y="327" width="3" height="3" fill="#F75049"/>
</g>
<g opacity="0.2">
<rect y="332" width="3" height="3" fill="#F75049"/>
<rect x="4" y="332" width="4" height="3" fill="#F75049"/>
</g>
<g opacity="0.2">
<rect y="337" width="3" height="3" fill="#F75049"/>
<rect x="4" y="337" width="4" height="3" fill="#F75049"/>
</g>
<g opacity="0.2">
<rect y="342" width="5" height="3" fill="#F75049"/>
<rect x="6" y="342" width="2" height="3" fill="#F75049"/>
</g>
<g opacity="0.2">
<rect y="347" width="6" height="3" fill="#F75049"/>
<rect x="7" y="347" width="1" height="3" fill="#F75049"/>
</g>
<g opacity="0.2">
<rect y="352" width="3" height="3" fill="#F75049"/>
<rect x="4" y="352" width="4" height="3" fill="#F75049"/>
</g>
<g opacity="0.2">
<rect y="357" width="4" height="3" fill="#F75049"/>
<rect x="5" y="357" width="3" height="3" fill="#F75049"/>
</g>
<g opacity="0.2">
<rect y="362" width="3" height="3" fill="#F75049"/>
<rect x="4" y="362" width="4" height="3" fill="#F75049"/>
</g>
<g opacity="0.2">
<rect y="367" width="3" height="3" fill="#F75049"/>
<rect x="4" y="367" width="4" height="3" fill="#F75049"/>
</g>
<g opacity="0.2">
<rect y="372" width="5" height="3" fill="#F75049"/>
<rect x="6" y="372" width="2" height="3" fill="#F75049"/>
</g>
<g opacity="0.2">
<rect y="377" width="6" height="3" fill="#F75049"/>
<rect x="7" y="377" width="1" height="3" fill="#F75049"/>
</g>
<g opacity="0.2">
<rect y="382" width="3" height="3" fill="#F75049"/>
<rect x="4" y="382" width="4" height="3" fill="#F75049"/>
</g>
<g opacity="0.2">
<rect y="387" width="4" height="3" fill="#F75049"/>
<rect x="5" y="387" width="3" height="3" fill="#F75049"/>
</g>
<g opacity="0.2">
<rect y="392" width="3" height="3" fill="#F75049"/>
<rect x="4" y="392" width="4" height="3" fill="#F75049"/>
</g>
<g opacity="0.2">
<rect y="397" width="3" height="3" fill="#F75049"/>
<rect x="4" y="397" width="4" height="3" fill="#F75049"/>
</g>
<g opacity="0.2">
<rect y="402" width="5" height="3" fill="#F75049"/>
<rect x="6" y="402" width="2" height="3" fill="#F75049"/>
</g>
<g opacity="0.2">
<rect y="407" width="6" height="3" fill="#F75049"/>
<rect x="7" y="407" width="1" height="3" fill="#F75049"/>
</g>
<g opacity="0.2">
<rect y="412" width="3" height="3" fill="#F75049"/>
<rect x="4" y="412" width="4" height="3" fill="#F75049"/>
</g>
<g opacity="0.2">
<rect y="417" width="4" height="3" fill="#F75049"/>
<rect x="5" y="417" width="3" height="3" fill="#F75049"/>
</g>
<g opacity="0.2">
<rect y="422" width="3" height="3" fill="#F75049"/>
<rect x="4" y="422" width="4" height="3" fill="#F75049"/>
</g>
<g opacity="0.2">
<rect y="427" width="3" height="3" fill="#F75049"/>
<rect x="4" y="427" width="4" height="3" fill="#F75049"/>
</g>
<g opacity="0.2">
<rect y="432" width="5" height="3" fill="#F75049"/>
<rect x="6" y="432" width="2" height="3" fill="#F75049"/>
</g>
<g opacity="0.2">
<rect y="437" width="6" height="3" fill="#F75049"/>
<rect x="7" y="437" width="1" height="3" fill="#F75049"/>
</g>
<g opacity="0.2">
<rect y="442" width="3" height="3" fill="#F75049"/>
<rect x="4" y="442" width="4" height="3" fill="#F75049"/>
</g>
<g opacity="0.2">
<rect y="447" width="4" height="3" fill="#F75049"/>
<rect x="5" y="447" width="3" height="3" fill="#F75049"/>
</g>
<g opacity="0.2">
<rect y="452" width="3" height="3" fill="#F75049"/>
<rect x="4" y="452" width="4" height="3" fill="#F75049"/>
</g>
<g opacity="0.2">
<rect y="457" width="3" height="3" fill="#F75049"/>
<rect x="4" y="457" width="4" height="3" fill="#F75049"/>
</g>
<g opacity="0.2">
<rect y="462" width="5" height="3" fill="#F75049"/>
<rect x="6" y="462" width="2" height="3" fill="#F75049"/>
</g>
<g opacity="0.2">
<rect y="467" width="6" height="3" fill="#F75049"/>
<rect x="7" y="467" width="1" height="3" fill="#F75049"/>
</g>
<g opacity="0.2">
<rect y="472" width="3" height="3" fill="#F75049"/>
<rect x="4" y="472" width="4" height="3" fill="#F75049"/>
</g>
<g opacity="0.2">
<rect y="477" width="4" height="3" fill="#F75049"/>
<rect x="5" y="477" width="3" height="3" fill="#F75049"/>
</g>
<g opacity="0.2">
<rect y="482" width="3" height="3" fill="#F75049"/>
<rect x="4" y="482" width="4" height="3" fill="#F75049"/>
</g>
<g opacity="0.2">
<rect y="487" width="3" height="3" fill="#F75049"/>
<rect x="4" y="487" width="4" height="3" fill="#F75049"/>
</g>
<g opacity="0.2">
<rect y="492" width="5" height="3" fill="#F75049"/>
<rect x="6" y="492" width="2" height="3" fill="#F75049"/>
</g>
<g opacity="0.2">
<rect y="497" width="6" height="3" fill="#F75049"/>
<rect x="7" y="497" width="1" height="3" fill="#F75049"/>
</g>
<g opacity="0.2">
<rect y="502" width="3" height="3" fill="#F75049"/>
<rect x="4" y="502" width="4" height="3" fill="#F75049"/>
</g>
<g opacity="0.2">
<rect y="507" width="4" height="3" fill="#F75049"/>
<rect x="5" y="507" width="3" height="3" fill="#F75049"/>
</g>
<g opacity="0.2">
<rect y="512" width="3" height="3" fill="#F75049"/>
<rect x="4" y="512" width="4" height="3" fill="#F75049"/>
</g>
<g opacity="0.2">
<rect y="517" width="3" height="3" fill="#F75049"/>
<rect x="4" y="517" width="4" height="3" fill="#F75049"/>
</g>
<g opacity="0.2">
<rect y="522" width="5" height="3" fill="#F75049"/>
<rect x="6" y="522" width="2" height="3" fill="#F75049"/>
</g>
<g opacity="0.2">
<rect y="527" width="6" height="3" fill="#F75049"/>
<rect x="7" y="527" width="1" height="3" fill="#F75049"/>
</g>
<g opacity="0.2">
<rect y="532" width="3" height="3" fill="#F75049"/>
<rect x="4" y="532" width="4" height="3" fill="#F75049"/>
</g>
<g opacity="0.2">
<rect y="537" width="4" height="3" fill="#F75049"/>
<rect x="5" y="537" width="3" height="3" fill="#F75049"/>
</g>
<g opacity="0.2">
<rect y="542" width="3" height="3" fill="#F75049"/>
<rect x="4" y="542" width="4" height="3" fill="#F75049"/>
</g>
<g opacity="0.2">
<rect y="547" width="3" height="3" fill="#F75049"/>
<rect x="4" y="547" width="4" height="3" fill="#F75049"/>
</g>
<g opacity="0.2">
<rect y="552" width="5" height="3" fill="#F75049"/>
<rect x="6" y="552" width="2" height="3" fill="#F75049"/>
</g>
<g opacity="0.2">
<rect y="557" width="6" height="3" fill="#F75049"/>
<rect x="7" y="557" width="1" height="3" fill="#F75049"/>
</g>
<g opacity="0.2">
<rect y="562" width="3" height="3" fill="#F75049"/>
<rect x="4" y="562" width="4" height="3" fill="#F75049"/>
</g>
<g opacity="0.2">
<rect y="567" width="4" height="3" fill="#F75049"/>
<rect x="5" y="567" width="3" height="3" fill="#F75049"/>
</g>
<g opacity="0.2">
<rect y="572" width="3" height="3" fill="#F75049"/>
<rect x="4" y="572" width="4" height="3" fill="#F75049"/>
</g>
<g opacity="0.2">
<rect y="577" width="3" height="3" fill="#F75049"/>
<rect x="4" y="577" width="4" height="3" fill="#F75049"/>
</g>
<g opacity="0.2">
<rect y="582" width="5" height="3" fill="#F75049"/>
<rect x="6" y="582" width="2" height="3" fill="#F75049"/>
</g>
<g opacity="0.2">
<rect y="587" width="6" height="3" fill="#F75049"/>
<rect x="7" y="587" width="1" height="3" fill="#F75049"/>
</g>
<g opacity="0.2">
<rect y="592" width="3" height="3" fill="#F75049"/>
<rect x="4" y="592" width="4" height="3" fill="#F75049"/>
</g>
<g opacity="0.2">
<rect y="597" width="4" height="3" fill="#F75049"/>
<rect x="5" y="597" width="3" height="3" fill="#F75049"/>
</g>
<g opacity="0.2">
<rect y="602" width="3" height="3" fill="#F75049"/>
<rect x="4" y="602" width="4" height="3" fill="#F75049"/>
</g>
<g opacity="0.2">
<rect y="607" width="3" height="3" fill="#F75049"/>
<rect x="4" y="607" width="4" height="3" fill="#F75049"/>
</g>
<g opacity="0.2">
<rect y="612" width="5" height="3" fill="#F75049"/>
<rect x="6" y="612" width="2" height="3" fill="#F75049"/>
</g>
<g opacity="0.2">
<rect y="617" width="6" height="3" fill="#F75049"/>
<rect x="7" y="617" width="1" height="3" fill="#F75049"/>
</g>
<g opacity="0.2">
<rect y="622" width="3" height="3" fill="#F75049"/>
<rect x="4" y="622" width="4" height="3" fill="#F75049"/>
</g>
<g opacity="0.2">
<rect y="627" width="4" height="3" fill="#F75049"/>
<rect x="5" y="627" width="3" height="3" fill="#F75049"/>
</g>
<g opacity="0.2">
<rect y="632" width="3" height="3" fill="#F75049"/>
<rect x="4" y="632" width="4" height="3" fill="#F75049"/>
</g>
<g opacity="0.2">
<rect y="637" width="3" height="3" fill="#F75049"/>
<rect x="4" y="637" width="4" height="3" fill="#F75049"/>
</g>
<g opacity="0.2">
<rect y="642" width="5" height="3" fill="#F75049"/>
<rect x="6" y="642" width="2" height="3" fill="#F75049"/>
</g>
<g opacity="0.2">
<rect y="647" width="6" height="3" fill="#F75049"/>
<rect x="7" y="647" width="1" height="3" fill="#F75049"/>
</g>
<g opacity="0.2">
<rect y="652" width="3" height="3" fill="#F75049"/>
<rect x="4" y="652" width="4" height="3" fill="#F75049"/>
</g>
<g opacity="0.2">
<rect y="657" width="4" height="3" fill="#F75049"/>
<rect x="5" y="657" width="3" height="3" fill="#F75049"/>
</g>
<g opacity="0.2">
<rect y="662" width="3" height="3" fill="#F75049"/>
<rect x="4" y="662" width="4" height="3" fill="#F75049"/>
</g>
<g opacity="0.2">
<rect y="667" width="3" height="3" fill="#F75049"/>
<rect x="4" y="667" width="4" height="3" fill="#F75049"/>
</g>
<g opacity="0.2">
<rect y="672" width="5" height="3" fill="#F75049"/>
<rect x="6" y="672" width="2" height="3" fill="#F75049"/>
</g>
<g opacity="0.2">
<rect y="677" width="6" height="3" fill="#F75049"/>
<rect x="7" y="677" width="1" height="3" fill="#F75049"/>
</g>
<g opacity="0.2">
<rect y="682" width="3" height="3" fill="#F75049"/>
<rect x="4" y="682" width="4" height="3" fill="#F75049"/>
</g>
<g opacity="0.2">
<rect y="687" width="4" height="3" fill="#F75049"/>
<rect x="5" y="687" width="3" height="3" fill="#F75049"/>
</g>
<g opacity="0.2">
<rect y="692" width="3" height="3" fill="#F75049"/>
<rect x="4" y="692" width="4" height="3" fill="#F75049"/>
</g>
<g opacity="0.2">
<rect y="697" width="3" height="3" fill="#F75049"/>
<rect x="4" y="697" width="4" height="3" fill="#F75049"/>
</g>
<g opacity="0.2">
<rect y="702" width="5" height="3" fill="#F75049"/>
<rect x="6" y="702" width="2" height="3" fill="#F75049"/>
</g>
<g opacity="0.2">
<rect y="707" width="6" height="3" fill="#F75049"/>
<rect x="7" y="707" width="1" height="3" fill="#F75049"/>
</g>
<g opacity="0.2">
<rect y="712" width="3" height="3" fill="#F75049"/>
<rect x="4" y="712" width="4" height="3" fill="#F75049"/>
</g>
<g opacity="0.2">
<rect y="717" width="4" height="3" fill="#F75049"/>
<rect x="5" y="717" width="3" height="3" fill="#F75049"/>
</g>
<g opacity="0.2">
<rect y="722" width="3" height="3" fill="#F75049"/>
<rect x="4" y="722" width="4" height="3" fill="#F75049"/>
</g>
<g opacity="0.2">
<rect y="727" width="3" height="3" fill="#F75049"/>
<rect x="4" y="727" width="4" height="3" fill="#F75049"/>
</g>
<g opacity="0.2">
<rect y="732" width="5" height="3" fill="#F75049"/>
<rect x="6" y="732" width="2" height="3" fill="#F75049"/>
</g>
<g opacity="0.2">
<rect y="737" width="6" height="3" fill="#F75049"/>
<rect x="7" y="737" width="1" height="3" fill="#F75049"/>
</g>
<g opacity="0.2">
<rect y="742" width="3" height="3" fill="#F75049"/>
<rect x="4" y="742" width="4" height="3" fill="#F75049"/>
</g>
<g opacity="0.2">
<rect y="747" width="4" height="3" fill="#F75049"/>
<rect x="5" y="747" width="3" height="3" fill="#F75049"/>
</g>
<g opacity="0.2">
<rect y="752" width="3" height="3" fill="#F75049"/>
<rect x="4" y="752" width="4" height="3" fill="#F75049"/>
</g>
<g opacity="0.2">
<rect y="757" width="3" height="3" fill="#F75049"/>
<rect x="4" y="757" width="4" height="3" fill="#F75049"/>
</g>
<g opacity="0.2">
<rect y="762" width="5" height="3" fill="#F75049"/>
<rect x="6" y="762" width="2" height="3" fill="#F75049"/>
</g>
<g opacity="0.2">
<rect y="767" width="6" height="3" fill="#F75049"/>
<rect x="7" y="767" width="1" height="3" fill="#F75049"/>
</g>
<g opacity="0.2">
<rect y="772" width="3" height="3" fill="#F75049"/>
<rect x="4" y="772" width="4" height="3" fill="#F75049"/>
</g>
<g opacity="0.2">
<rect y="777" width="4" height="3" fill="#F75049"/>
<rect x="5" y="777" width="3" height="3" fill="#F75049"/>
</g>
<g opacity="0.2">
<rect y="782" width="3" height="3" fill="#F75049"/>
<rect x="4" y="782" width="4" height="3" fill="#F75049"/>
</g>
<g opacity="0.2">
<rect y="787" width="3" height="3" fill="#F75049"/>
<rect x="4" y="787" width="4" height="3" fill="#F75049"/>
</g>
<g opacity="0.2">
<rect y="792" width="5" height="3" fill="#F75049"/>
<rect x="6" y="792" width="2" height="3" fill="#F75049"/>
</g>
<g opacity="0.2">
<rect y="797" width="6" height="3" fill="#F75049"/>
<rect x="7" y="797" width="1" height="3" fill="#F75049"/>
</g>
<g opacity="0.2">
<rect y="802" width="3" height="3" fill="#F75049"/>
<rect x="4" y="802" width="4" height="3" fill="#F75049"/>
</g>
<g opacity="0.2">
<rect y="807" width="4" height="3" fill="#F75049"/>
<rect x="5" y="807" width="3" height="3" fill="#F75049"/>
</g>
<g opacity="0.2">
<rect y="812" width="3" height="3" fill="#F75049"/>
<rect x="4" y="812" width="4" height="3" fill="#F75049"/>
</g>
<g opacity="0.2">
<rect y="817" width="3" height="3" fill="#F75049"/>
<rect x="4" y="817" width="4" height="3" fill="#F75049"/>
</g>
<g opacity="0.2">
<rect y="822" width="5" height="3" fill="#F75049"/>
<rect x="6" y="822" width="2" height="3" fill="#F75049"/>
</g>
<g opacity="0.2">
<rect y="827" width="6" height="3" fill="#F75049"/>
<rect x="7" y="827" width="1" height="3" fill="#F75049"/>
</g>
<g opacity="0.2">
<rect y="832" width="3" height="3" fill="#F75049"/>
<rect x="4" y="832" width="4" height="3" fill="#F75049"/>
</g>
<g opacity="0.2">
<rect y="837" width="4" height="3" fill="#F75049"/>
<rect x="5" y="837" width="3" height="3" fill="#F75049"/>
</g>
<g opacity="0.2">
<rect y="842" width="3" height="3" fill="#F75049"/>
<rect x="4" y="842" width="4" height="3" fill="#F75049"/>
</g>
<g opacity="0.2">
<rect y="847" width="3" height="3" fill="#F75049"/>
<rect x="4" y="847" width="4" height="3" fill="#F75049"/>
</g>
<g opacity="0.2">
<rect y="852" width="5" height="3" fill="#F75049"/>
<rect x="6" y="852" width="2" height="3" fill="#F75049"/>
</g>
<g opacity="0.2">
<rect y="857" width="6" height="3" fill="#F75049"/>
<rect x="7" y="857" width="1" height="3" fill="#F75049"/>
</g>
<g opacity="0.2">
<rect y="862" width="3" height="3" fill="#F75049"/>
<rect x="4" y="862" width="4" height="3" fill="#F75049"/>
</g>
<g opacity="0.2">
<rect y="867" width="4" height="3" fill="#F75049"/>
<rect x="5" y="867" width="3" height="3" fill="#F75049"/>
</g>
<g opacity="0.2">
<rect y="872" width="3" height="3" fill="#F75049"/>
<rect x="4" y="872" width="4" height="3" fill="#F75049"/>
</g>
<g opacity="0.2">
<rect y="877" width="3" height="3" fill="#F75049"/>
<rect x="4" y="877" width="4" height="3" fill="#F75049"/>
</g>
<g opacity="0.2">
<rect y="882" width="5" height="3" fill="#F75049"/>
<rect x="6" y="882" width="2" height="3" fill="#F75049"/>
</g>
<g opacity="0.2">
<rect y="887" width="6" height="3" fill="#F75049"/>
<rect x="7" y="887" width="1" height="3" fill="#F75049"/>
</g>
<g opacity="0.2">
<rect y="892" width="3" height="3" fill="#F75049"/>
<rect x="4" y="892" width="4" height="3" fill="#F75049"/>
</g>
<g opacity="0.2">
<rect y="897" width="4" height="3" fill="#F75049"/>
<rect x="5" y="897" width="3" height="3" fill="#F75049"/>
</g>
<g opacity="0.2">
<rect y="902" width="3" height="3" fill="#F75049"/>
<rect x="4" y="902" width="4" height="3" fill="#F75049"/>
</g>
<g opacity="0.2">
<rect y="907" width="3" height="3" fill="#F75049"/>
<rect x="4" y="907" width="4" height="3" fill="#F75049"/>
</g>
<g opacity="0.2">
<rect y="912" width="5" height="3" fill="#F75049"/>
<rect x="6" y="912" width="2" height="3" fill="#F75049"/>
</g>
<g opacity="0.2">
<rect y="917" width="6" height="3" fill="#F75049"/>
<rect x="7" y="917" width="1" height="3" fill="#F75049"/>
</g>
<g opacity="0.2">
<rect y="922" width="3" height="3" fill="#F75049"/>
<rect x="4" y="922" width="4" height="3" fill="#F75049"/>
</g>
<g opacity="0.2">
<rect y="927" width="4" height="3" fill="#F75049"/>
<rect x="5" y="927" width="3" height="3" fill="#F75049"/>
</g>
<g opacity="0.2">
<rect y="932" width="3" height="3" fill="#F75049"/>
<rect x="4" y="932" width="4" height="3" fill="#F75049"/>
</g>
<g opacity="0.2">
<rect y="937" width="3" height="3" fill="#F75049"/>
<rect x="4" y="937" width="4" height="3" fill="#F75049"/>
</g>
<g opacity="0.2">
<rect y="942" width="5" height="3" fill="#F75049"/>
<rect x="6" y="942" width="2" height="3" fill="#F75049"/>
</g>
<g opacity="0.2">
<rect y="947" width="6" height="3" fill="#F75049"/>
<rect x="7" y="947" width="1" height="3" fill="#F75049"/>
</g>
<g opacity="0.2">
<rect y="952" width="3" height="3" fill="#F75049"/>
<rect x="4" y="952" width="4" height="3" fill="#F75049"/>
</g>
<g opacity="0.2">
<rect y="957" width="4" height="3" fill="#F75049"/>
<rect x="5" y="957" width="3" height="3" fill="#F75049"/>
</g>
<g opacity="0.2">
<rect y="962" width="3" height="3" fill="#F75049"/>
<rect x="4" y="962" width="4" height="3" fill="#F75049"/>
</g>
<g opacity="0.2">
<rect y="967" width="3" height="3" fill="#F75049"/>
<rect x="4" y="967" width="4" height="3" fill="#F75049"/>
</g>
<g opacity="0.2">
<rect y="972" width="5" height="3" fill="#F75049"/>
<rect x="6" y="972" width="2" height="3" fill="#F75049"/>
</g>
<g opacity="0.2">
<rect y="977" width="6" height="3" fill="#F75049"/>
<rect x="7" y="977" width="1" height="3" fill="#F75049"/>
</g>
<g opacity="0.2">
<rect y="982" width="3" height="3" fill="#F75049"/>
<rect x="4" y="982" width="4" height="3" fill="#F75049"/>
</g>
<g opacity="0.2">
<rect y="987" width="4" height="3" fill="#F75049"/>
<rect x="5" y="987" width="3" height="3" fill="#F75049"/>
</g>
<g opacity="0.2">
<rect y="992" width="3" height="3" fill="#F75049"/>
<rect x="4" y="992" width="4" height="3" fill="#F75049"/>
</g>
<g opacity="0.2">
<rect y="997" width="3" height="3" fill="#F75049"/>
<rect x="4" y="997" width="4" height="3" fill="#F75049"/>
</g>
<g opacity="0.2">
<rect y="1002" width="5" height="3" fill="#F75049"/>
<rect x="6" y="1002" width="2" height="3" fill="#F75049"/>
</g>
<g opacity="0.2">
<rect y="1007" width="6" height="3" fill="#F75049"/>
<rect x="7" y="1007" width="1" height="3" fill="#F75049"/>
</g>
<g opacity="0.2">
<rect y="1012" width="3" height="3" fill="#F75049"/>
<rect x="4" y="1012" width="4" height="3" fill="#F75049"/>
</g>
<g opacity="0.2">
<rect y="1017" width="4" height="3" fill="#F75049"/>
<rect x="5" y="1017" width="3" height="3" fill="#F75049"/>
</g>
<g opacity="0.2">
<rect y="1022" width="3" height="3" fill="#F75049"/>
<rect x="4" y="1022" width="4" height="3" fill="#F75049"/>
</g>
</svg>
